<?xml version="1.0" encoding="UTF-8" standalone="no"?><svg xmlns="http://www.w3.org/2000/svg" xmlns:xlink="http://www.w3.org/1999/xlink" contentScriptType="application/ecmascript" contentStyleType="text/css" height="703px" preserveAspectRatio="none" style="width:551px;height:703px;" version="1.1" viewBox="0 0 551 703" width="551px" zoomAndPan="magnify"><defs><filter height="300%" id="fot1yglk1khd9" width="300%" x="-1" y="-1"><feGaussianBlur result="blurOut" stdDeviation="2.0"/><feColorMatrix in="blurOut" result="blurOut2" type="matrix" values="0 0 0 0 0 0 0 0 0 0 0 0 0 0 0 0 0 0 .4 0"/><feOffset dx="4.0" dy="4.0" in="blurOut2" result="blurOut3"/><feBlend in="SourceGraphic" in2="blurOut3" mode="normal"/></filter></defs><g><text fill="#000000" font-family="sans-serif" font-size="14" font-weight="bold" lengthAdjust="spacingAndGlyphs" textLength="157" x="192.75" y="22.9951">Authentication Flow</text><polygon fill="#FFFFFF" filter="url(#fot1yglk1khd9)" points="423.5,186.8594,423.5,186.9294,425.5,186.7213,427.5,186.9238,429.5,186.9926,431.5,186.6216,433.5,186.8594,433.4741,186.8594,433.3578,192.6859,433.3722,198.5125,433.4773,204.3391,433.2695,210.1656,433.5,215.9922,433.5,216.1767,431.5,215.7821,429.5,215.9263,427.5,216.1362,425.5,215.9636,423.5,215.9922,423.5227,215.9922,423.4894,210.1656,423.5595,204.3391,423.5797,198.5125,423.6952,192.6859,423.5,186.8594" style="stroke: #000000; stroke-width: 1.0;"/><polygon fill="#FFFFFF" filter="url(#fot1yglk1khd9)" points="423.5,270.125,423.5,270.1951,425.5,269.9869,427.5,270.1894,429.5,270.2582,431.5,269.8872,433.5,270.125,433.4741,270.125,433.3578,275.9516,433.3722,281.7781,433.4773,287.6047,433.2695,293.4313,433.5,299.2578,433.5,299.4424,431.5,299.0477,429.5,299.1919,427.5,299.4018,425.5,299.2292,423.5,299.2578,423.5227,299.2578,423.4894,293.4313,423.5595,287.6047,423.5797,281.7781,423.6952,275.9516,423.5,270.125" style="stroke: #000000; stroke-width: 1.0;"/><polygon fill="#FFFFFF" filter="url(#fot1yglk1khd9)" points="423.5,504.7891,423.5,504.8591,425.5,504.651,427.5,504.8535,429.5,504.9223,431.5,504.5513,433.5,504.7891,433.4741,504.7891,433.3578,510.6156,433.3722,516.4422,433.4773,522.2688,433.2695,528.0953,433.5,533.9219,433.5,534.1064,431.5,533.7118,429.5,533.856,427.5,534.0659,425.5,533.8933,423.5,533.9219,423.5227,533.9219,423.4894,528.0953,423.5595,522.2688,423.5797,516.4422,423.6952,510.6156,423.5,504.7891" style="stroke: #000000; stroke-width: 1.0;"/><path d="M50,116.5938 L50.2802,116.5938 L49.4476,126.583 L50.2577,136.5722 L50.5329,146.5614 L49.0488,156.5506 L49.8964,166.5398 L49.4313,176.5291 L49.4887,186.5183 L49.9091,196.5075 L49.0782,206.4967 L50.7382,216.4859 L49.1596,226.4752 L49.7363,236.4644 L50.5759,246.4536 L49.8856,256.4428 L50.091,266.432 L49.9574,276.4213 L50.238,286.4105 L50.3188,296.3997 L50.7809,306.3889 L50.8947,316.3781 L50.9057,326.3673 L50.3395,336.3566 L50.6181,346.3458 L50.9363,356.335 L49.0384,366.3242 L50.9047,376.3134 L49.6047,386.3027 L50.7117,396.2919 L49.34,406.2811 L49.9087,416.2703 L50.9888,426.2595 L49.935,436.2488 L50.1404,446.238 L50.4515,456.2272 L50.555,466.2164 L49.9948,476.2056 L50.383,486.1948 L49.2368,496.1841 L50.3792,506.1733 L50.7309,516.1625 L50.5927,526.1517 L50.8174,536.1409 L49.3559,546.1302 L49.1304,556.1194 L49.1715,566.1086 L49.9215,576.0978 L49.738,586.087 L50.9085,596.0763 L49.7671,606.0655 L50,616.0547 " fill="none" style="stroke: #000000; stroke-width: 1.0; stroke-dasharray: 5.0,5.0;"/><path d="M146,116.5938 L146.2802,116.5938 L145.4476,126.583 L146.2577,136.5722 L146.5329,146.5614 L145.0488,156.5506 L145.8964,166.5398 L145.4313,176.5291 L145.4887,186.5183 L145.9091,196.5075 L145.0782,206.4967 L146.7382,216.4859 L145.1596,226.4752 L145.7363,236.4644 L146.5759,246.4536 L145.8856,256.4428 L146.091,266.432 L145.9574,276.4213 L146.238,286.4105 L146.3188,296.3997 L146.7809,306.3889 L146.8947,316.3781 L146.9057,326.3673 L146.3395,336.3566 L146.6181,346.3458 L146.9363,356.335 L145.0384,366.3242 L146.9047,376.3134 L145.6047,386.3027 L146.7117,396.2919 L145.34,406.2811 L145.9087,416.2703 L146.9888,426.2595 L145.935,436.2488 L146.1404,446.238 L146.4515,456.2272 L146.555,466.2164 L145.9948,476.2056 L146.383,486.1948 L145.2368,496.1841 L146.3792,506.1733 L146.7309,516.1625 L146.5927,526.1517 L146.8174,536.1409 L145.3559,546.1302 L145.1304,556.1194 L145.1715,566.1086 L145.9215,576.0978 L145.738,586.087 L146.9085,596.0763 L145.7671,606.0655 L146,616.0547 " fill="none" style="stroke: #000000; stroke-width: 1.0; stroke-dasharray: 5.0,5.0;"/><path d="M428.5,116.5938 L428.7802,116.5938 L427.9476,126.583 L428.7577,136.5722 L429.0329,146.5614 L427.5488,156.5506 L428.3964,166.5398 L427.9313,176.5291 L427.9887,186.5183 L428.4091,196.5075 L427.5782,206.4967 L429.2382,216.4859 L427.6596,226.4752 L428.2363,236.4644 L429.0759,246.4536 L428.3856,256.4428 L428.591,266.432 L428.4574,276.4213 L428.738,286.4105 L428.8188,296.3997 L429.2809,306.3889 L429.3947,316.3781 L429.4057,326.3673 L428.8395,336.3566 L429.1181,346.3458 L429.4363,356.335 L427.5384,366.3242 L429.4047,376.3134 L428.1047,386.3027 L429.2117,396.2919 L427.84,406.2811 L428.4087,416.2703 L429.4888,426.2595 L428.435,436.2488 L428.6404,446.238 L428.9515,456.2272 L429.055,466.2164 L428.4948,476.2056 L428.883,486.1948 L427.7368,496.1841 L428.8792,506.1733 L429.2309,516.1625 L429.0927,526.1517 L429.3174,536.1409 L427.8559,546.1302 L427.6304,556.1194 L427.6715,566.1086 L428.4215,576.0978 L428.238,586.087 L429.4085,596.0763 L428.2671,606.0655 L428.5,616.0547 " fill="none" style="stroke: #000000; stroke-width: 1.0; stroke-dasharray: 5.0,5.0;"/><path d="M511.5,116.5938 L511.7802,116.5938 L510.9476,126.583 L511.7577,136.5722 L512.0329,146.5614 L510.5488,156.5506 L511.3964,166.5398 L510.9313,176.5291 L510.9887,186.5183 L511.4091,196.5075 L510.5782,206.4967 L512.2382,216.4859 L510.6596,226.4752 L511.2363,236.4644 L512.0759,246.4536 L511.3856,256.4428 L511.591,266.432 L511.4574,276.4213 L511.738,286.4105 L511.8188,296.3997 L512.2809,306.3889 L512.3947,316.3781 L512.4057,326.3673 L511.8395,336.3566 L512.1181,346.3458 L512.4363,356.335 L510.5384,366.3242 L512.4047,376.3134 L511.1047,386.3027 L512.2117,396.2919 L510.84,406.2811 L511.4087,416.2703 L512.4888,426.2595 L511.435,436.2488 L511.6404,446.238 L511.9515,456.2272 L512.055,466.2164 L511.4948,476.2056 L511.883,486.1948 L510.7368,496.1841 L511.8792,506.1733 L512.2309,516.1625 L512.0927,526.1517 L512.3174,536.1409 L510.8559,546.1302 L510.6304,556.1194 L510.6715,566.1086 L511.4215,576.0978 L511.238,586.087 L512.4085,596.0763 L511.2671,606.0655 L511.5,616.0547 " fill="none" style="stroke: #000000; stroke-width: 1.0; stroke-dasharray: 5.0,5.0;"/><text fill="#000000" font-family="sans-serif" font-size="14" lengthAdjust="spacingAndGlyphs" textLength="76" x="9" y="113.292">Cardholder</text><polygon fill="#FFFFFF" filter="url(#fot1yglk1khd9)" points="58.0442,45.2428,56.8715,46.8451,55.4845,49.1919,53.5008,50.7735,51.4163,51.6384,49.7542,51.7135,47.618,50.6318,45.6023,49.9252,44.0724,48.4905,43.2699,46.848,42.7939,45.5402,42.3277,43.8319,41.5709,42.3619,42.1525,40.9267,42.662,39.3545,44.574,38.111,45.9192,36.4977,47.5843,35.9619,49.5637,35.5005,52.1021,35.7747,53.4924,36.4304,55.1089,36.7276,57.0743,38.7412,57.7595,40.867,58.0571,42.3175,57.72,44.7077" style="stroke: #000000; stroke-width: 2.0;"/><path d="M50,51.2969 L50.1868,51.2969 L49.6317,56.6969 L50.1718,62.0969 L50.3553,67.4969 L49.3659,72.8969 L50,78.2969 M37,59.2969 L37,59.2278 L42.2,58.9178 L47.4,58.956 L52.6,59.2363 L57.8,58.6823 L63,59.2969 M50,78.2969 L50.3719,78.6192 L46.9766,80.93 L44.6672,84.1817 L42.4901,87.5483 L39.5424,90.2469 L37,93.2969 M50,78.2969 L50.0458,78.3366 L52.5785,81.2783 L55.3199,84.4008 L57.9606,87.4361 L60.7934,90.6378 L63,93.2969 " fill="none" filter="url(#fot1yglk1khd9)" style="stroke: #000000; stroke-width: 2.0;"/><text fill="#000000" font-family="sans-serif" font-size="14" lengthAdjust="spacingAndGlyphs" textLength="76" x="9" y="628.0498">Cardholder</text><polygon fill="#FFFFFF" filter="url(#fot1yglk1khd9)" points="58.0442,643.2975,56.8715,644.8998,55.4845,647.2466,53.5008,648.8282,51.4163,649.6931,49.7542,649.7682,47.618,648.6865,45.6023,647.9799,44.0724,646.5451,43.2699,644.9027,42.7939,643.5949,42.3277,641.8866,41.5709,640.4166,42.1525,638.9814,42.662,637.4092,44.574,636.1657,45.9192,634.5524,47.5843,634.0166,49.5637,633.5552,52.1021,633.8294,53.4924,634.485,55.1089,634.7822,57.0743,636.7959,57.7595,638.9217,58.0571,640.3722,57.72,642.7624" style="stroke: #000000; stroke-width: 2.0;"/><path d="M50,649.3516 L50.1868,649.3516 L49.6317,654.7516 L50.1718,660.1516 L50.3553,665.5516 L49.3659,670.9516 L50,676.3516 M37,657.3516 L37,657.2825 L42.2,656.9725 L47.4,657.0107 L52.6,657.291 L57.8,656.737 L63,657.3516 M50,676.3516 L50.3719,676.6739 L46.9766,678.9846 L44.6672,682.2364 L42.4901,685.603 L39.5424,688.3016 L37,691.3516 M50,676.3516 L50.0458,676.3913 L52.5785,679.333 L55.3199,682.4555 L57.9606,685.4908 L60.7934,688.6925 L63,691.3516 " fill="none" filter="url(#fot1yglk1khd9)" style="stroke: #000000; stroke-width: 2.0;"/><polygon fill="#FFFFFF" filter="url(#fot1yglk1khd9)" points="101,81.2969,101,81.5071,110.6667,80.8826,120.3333,81.4902,130,81.6966,139.6667,80.5835,149.3333,81.2192,159,80.8704,168.6667,80.9134,178.3333,81.2287,188,81.2969,187.7695,81.2969,188.1845,87.3563,187.7899,93.4156,187.9341,99.475,188.144,105.5344,188,111.5938,188,111.508,178.3333,111.662,168.6667,111.5618,159,111.7723,149.3333,111.8329,139.6667,112.1794,130,112.2648,120.3333,112.273,110.6667,111.8484,101,111.5938,101.1545,111.5938,101.2341,105.5344,100.7596,99.475,101.2262,93.4156,100.9012,87.3563,101,81.2969" style="stroke: #000000; stroke-width: 1.5;"/><text fill="#000000" font-family="sans-serif" font-size="14" lengthAdjust="spacingAndGlyphs" textLength="73" x="108" y="101.292">Requestor</text><polygon fill="#FFFFFF" filter="url(#fot1yglk1khd9)" points="101,615.0547,101,615.2649,110.6667,614.6404,120.3333,615.248,130,615.4544,139.6667,614.3413,149.3333,614.977,159,614.6282,168.6667,614.6712,178.3333,614.9865,188,615.0547,187.7695,615.0547,188.1845,621.1141,187.7899,627.1734,187.9341,633.2328,188.144,639.2922,188,645.3516,188,645.2658,178.3333,645.4198,168.6667,645.3196,159,645.5301,149.3333,645.5907,139.6667,645.9373,130,646.0226,120.3333,646.0308,110.6667,645.6062,101,645.3516,101.1545,645.3516,101.2341,639.2922,100.7596,633.2328,101.2262,627.1734,100.9012,621.1141,101,615.0547" style="stroke: #000000; stroke-width: 1.5;"/><text fill="#000000" font-family="sans-serif" font-size="14" lengthAdjust="spacingAndGlyphs" textLength="73" x="108" y="635.0498">Requestor</text><polygon fill="#FFFFFF" filter="url(#fot1yglk1khd9)" points="378.5,81.2969,378.5,81.5071,388.1,80.8826,397.7,81.4902,407.3,81.6966,416.9,80.5835,426.5,81.2192,436.1,80.8704,445.7,80.9134,455.3,81.2287,464.9,80.6055,474.5,81.2969,474.6845,81.2969,474.2899,87.3563,474.4341,93.4156,474.644,99.475,474.4714,105.5344,474.5,111.5938,474.5,111.662,464.9,111.5618,455.3,111.7723,445.7,111.8329,436.1,112.1794,426.5,112.2648,416.9,112.273,407.3,111.8484,397.7,112.0573,388.1,112.296,378.5,111.5938,378.2596,111.5938,378.7262,105.5344,378.4012,99.475,378.6779,93.4156,378.335,87.3563,378.5,81.2969" style="stroke: #000000; stroke-width: 1.5;"/><text fill="#000000" font-family="sans-serif" font-size="14" lengthAdjust="spacingAndGlyphs" textLength="82" x="385.5" y="101.292">3dsecure.io</text><polygon fill="#FFFFFF" filter="url(#fot1yglk1khd9)" points="378.5,615.0547,378.5,615.2649,388.1,614.6404,397.7,615.248,407.3,615.4544,416.9,614.3413,426.5,614.977,436.1,614.6282,445.7,614.6712,455.3,614.9865,464.9,614.3633,474.5,615.0547,474.6845,615.0547,474.2899,621.1141,474.4341,627.1734,474.644,633.2328,474.4714,639.2922,474.5,645.3516,474.5,645.4198,464.9,645.3196,455.3,645.5301,445.7,645.5907,436.1,645.9373,426.5,646.0226,416.9,646.0308,407.3,645.6062,397.7,645.8151,388.1,646.0538,378.5,645.3516,378.2596,645.3516,378.7262,639.2922,378.4012,633.2328,378.6779,627.1734,378.335,621.1141,378.5,615.0547" style="stroke: #000000; stroke-width: 1.5;"/><text fill="#000000" font-family="sans-serif" font-size="14" lengthAdjust="spacingAndGlyphs" textLength="82" x="385.5" y="635.0498">3dsecure.io</text><polygon fill="#FFFFFF" filter="url(#fot1yglk1khd9)" points="488.5,81.2969,488.5,81.3669,496.9,81.1588,505.3,81.3613,513.7,81.4301,522.1,81.0591,530.5,81.2969,530.4741,81.2969,530.3578,87.3563,530.3722,93.4156,530.4773,99.475,530.2695,105.5344,530.5,111.5938,530.5,111.7783,522.1,111.3837,513.7,111.5278,505.3,111.7377,496.9,111.5652,488.5,111.5938,488.5227,111.5938,488.4894,105.5344,488.5595,99.475,488.5797,93.4156,488.6952,87.3563,488.5,81.2969" style="stroke: #000000; stroke-width: 1.5;"/><text fill="#000000" font-family="sans-serif" font-size="14" lengthAdjust="spacingAndGlyphs" textLength="28" x="495.5" y="101.292">ACS</text><polygon fill="#FFFFFF" filter="url(#fot1yglk1khd9)" points="488.5,615.0547,488.5,615.1247,496.9,614.9166,505.3,615.1191,513.7,615.1879,522.1,614.8169,530.5,615.0547,530.4741,615.0547,530.3578,621.1141,530.3722,627.1734,530.4773,633.2328,530.2695,639.2922,530.5,645.3516,530.5,645.5361,522.1,645.1415,513.7,645.2856,505.3,645.4955,496.9,645.323,488.5,645.3516,488.5227,645.3516,488.4894,639.2922,488.5595,633.2328,488.5797,627.1734,488.6952,621.1141,488.5,615.0547" style="stroke: #000000; stroke-width: 1.5;"/><text fill="#000000" font-family="sans-serif" font-size="14" lengthAdjust="spacingAndGlyphs" textLength="28" x="495.5" y="635.0498">ACS</text><polygon fill="#FFFFFF" filter="url(#fot1yglk1khd9)" points="423.5,186.8594,423.5,186.9294,425.5,186.7213,427.5,186.9238,429.5,186.9926,431.5,186.6216,433.5,186.8594,433.4741,186.8594,433.3578,192.6859,433.3722,198.5125,433.4773,204.3391,433.2695,210.1656,433.5,215.9922,433.5,216.1767,431.5,215.7821,429.5,215.9263,427.5,216.1362,425.5,215.9636,423.5,215.9922,423.5227,215.9922,423.4894,210.1656,423.5595,204.3391,423.5797,198.5125,423.6952,192.6859,423.5,186.8594" style="stroke: #000000; stroke-width: 1.0;"/><polygon fill="#FFFFFF" filter="url(#fot1yglk1khd9)" points="423.5,270.125,423.5,270.1951,425.5,269.9869,427.5,270.1894,429.5,270.2582,431.5,269.8872,433.5,270.125,433.4741,270.125,433.3578,275.9516,433.3722,281.7781,433.4773,287.6047,433.2695,293.4313,433.5,299.2578,433.5,299.4424,431.5,299.0477,429.5,299.1919,427.5,299.4018,425.5,299.2292,423.5,299.2578,423.5227,299.2578,423.4894,293.4313,423.5595,287.6047,423.5797,281.7781,423.6952,275.9516,423.5,270.125" style="stroke: #000000; stroke-width: 1.0;"/><polygon fill="#FFFFFF" filter="url(#fot1yglk1khd9)" points="423.5,504.7891,423.5,504.8591,425.5,504.651,427.5,504.8535,429.5,504.9223,431.5,504.5513,433.5,504.7891,433.4741,504.7891,433.3578,510.6156,433.3722,516.4422,433.4773,522.2688,433.2695,528.0953,433.5,533.9219,433.5,534.1064,431.5,533.7118,429.5,533.856,427.5,534.0659,425.5,533.8933,423.5,533.9219,423.5227,533.9219,423.4894,528.0953,423.5595,522.2688,423.5797,516.4422,423.6952,510.6156,423.5,504.7891" style="stroke: #000000; stroke-width: 1.0;"/><path d="M9,131.5938 L9.1868,131.5938 L8.6317,136.5938 L9.1718,141.5938 L9.3553,146.5938 L8.3659,151.5938 L9,156.5938 L9,156.3865 L18.8889,155.4564 L28.7778,155.5711 L38.6667,156.412 L48.5556,154.7501 L58.4444,158.0701 L68.3333,154.913 L78.2222,156.0664 L88.1111,157.7456 L98,156.365 L107.8889,156.7757 L117.7778,156.5086 L127.6667,157.0698 L137.5556,157.2314 L147.4444,158.1556 L157.3333,158.3832 L167.2222,158.4051 L177.1111,157.2728 L187,156.5938 L187.4121,156.5938 L187.6242,153.5938 L186.3589,150.5938 L187.6031,147.5938 L186.7364,144.5938 L187,141.5938 L187.3355,141.9293 L184.6889,139.2826 L182.9569,137.5507 L181.4661,136.0599 L178.9694,133.5631 L177,131.5938 L177,131.8746 L167.1176,132.4968 L157.2353,132.7037 L147.3529,131.5833 L137.4706,132.3597 L127.5882,130.0673 L117.7059,132.3521 L107.8235,133.0556 L97.9412,132.7792 L88.0588,133.2285 L78.1765,130.3055 L68.2941,129.8546 L58.4118,129.9367 L48.5294,131.4367 L38.6471,131.0697 L28.7647,133.4108 L18.8824,131.1279 L9,131.5938 " fill="#ECECEC" filter="url(#fot1yglk1khd9)" style="stroke: #383838; stroke-width: 1.0;"/><path d="M177,131.5938 L176.6951,131.5938 L177.2029,133.5938 L176.4073,135.5938 L176.5386,137.5938 L177.5768,139.5938 L177,141.5938 L177,141.981 L179,142.2466 L181,141.3077 L183,141.8775 L185,142.1186 L187,141.5938 L186.7031,141.2968 L184.9397,139.5335 L183.0792,137.6729 L181.4097,136.0034 L178.9974,133.5911 L177,131.5938 " fill="#ECECEC" style="stroke: #383838; stroke-width: 1.0;"/><text fill="#000000" font-family="sans-serif" font-size="13" lengthAdjust="spacingAndGlyphs" textLength="112" x="35.5" y="148.6606">Begin transaction</text><polygon fill="#000000" points="411.5,182.8594,411.526,182.9244,413.4487,183.5311,415.5239,184.5192,417.5495,185.3831,419.4117,185.8386,421.5,186.8594,421.4904,186.8353,419.4472,187.5274,417.4525,188.3407,415.4916,189.2383,413.4144,189.8454,411.5,190.8594,411.6305,190.9899,412.1514,189.9108,413.0534,189.2128,414.0018,188.5612,414.6798,187.6392,415.5,186.8594,415.5161,186.8755,414.6925,186.0518,413.9421,185.3015,413.1564,184.5157,412.438,183.7974,411.5,182.8594" style="stroke: #000000; stroke-width: 1.0;"/><path d="M146.5,186.8594 L146.5,187.1396 L156.537,186.3069 L166.5741,187.1171 L176.6111,187.3923 L186.6481,185.9082 L196.6852,186.7558 L206.7222,186.2907 L216.7593,186.348 L226.7963,186.7685 L236.8333,185.9375 L246.8704,187.5976 L256.9074,186.019 L266.9444,186.5957 L276.9815,187.4353 L287.0185,186.745 L297.0556,186.9504 L307.0926,186.8168 L317.1296,187.0974 L327.1667,187.1782 L337.2037,187.6403 L347.2407,187.7541 L357.2778,187.7651 L367.3148,187.1989 L377.3519,187.4775 L387.3889,187.7957 L397.4259,185.8978 L407.463,187.7641 L417.5,186.8594 " fill="none" style="stroke: #000000; stroke-width: 1.0;"/><text fill="#000000" font-family="sans-serif" font-size="13" font-weight="bold" lengthAdjust="spacingAndGlyphs" textLength="9" x="153.5" y="181.7935">1</text><text fill="#000000" font-family="sans-serif" font-size="13" lengthAdjust="spacingAndGlyphs" textLength="245" x="166.5" y="181.7935">Versioning/3DS-Method determination</text><polygon fill="#000000" points="157.5,211.9922,157.526,212.0572,155.4487,212.664,153.5239,213.652,151.5495,214.5159,149.4117,214.9714,147.5,215.9922,147.4904,215.9681,149.4472,216.6602,151.4525,217.4735,153.4916,218.3711,155.4144,218.9782,157.5,219.9922,157.6305,220.1227,156.5514,219.0436,155.8534,218.3456,155.2018,217.694,154.2798,216.772,153.5,215.9922,153.5161,216.0083,154.2925,215.1847,155.1421,214.4343,155.9564,213.6486,156.838,212.9302,157.5,211.9922" style="stroke: #000000; stroke-width: 1.0;"/><path d="M151.5,215.9922 L151.5,216.2724 L161.3571,215.4398 L171.2143,216.2499 L181.0714,216.5251 L190.9286,215.041 L200.7857,215.8886 L210.6429,215.4235 L220.5,215.4809 L230.3571,215.9013 L240.2143,215.0704 L250.0714,216.7304 L259.9286,215.1518 L269.7857,215.7285 L279.6429,216.5681 L289.5,215.8778 L299.3571,216.0832 L309.2143,215.9496 L319.0714,216.2302 L328.9286,216.311 L338.7857,216.7731 L348.6429,216.8869 L358.5,216.8979 L368.3571,216.3317 L378.2143,216.6103 L388.0714,216.9285 L397.9286,215.0306 L407.7857,216.8969 L417.6429,215.5968 L427.5,215.9922 " fill="none" style="stroke: #000000; stroke-width: 1.0;"/><text fill="#000000" font-family="sans-serif" font-size="13" font-weight="bold" lengthAdjust="spacingAndGlyphs" textLength="9" x="163.5" y="210.9263">2</text><text fill="#000000" font-family="sans-serif" font-size="13" lengthAdjust="spacingAndGlyphs" textLength="109" x="176.5" y="210.9263">Card Range Data</text><polygon fill="#000000" points="411.5,266.125,411.526,266.19,413.4487,266.7968,415.5239,267.7848,417.5495,268.6487,419.4117,269.1042,421.5,270.125,421.4904,270.1009,419.4472,270.793,417.4525,271.6063,415.4916,272.5039,413.4144,273.111,411.5,274.125,411.6305,274.2555,412.1514,273.1764,413.0534,272.4784,414.0018,271.8268,414.6798,270.9048,415.5,270.125,415.5161,270.1411,414.6925,269.3175,413.9421,268.5671,413.1564,267.7814,412.438,267.063,411.5,266.125" style="stroke: #000000; stroke-width: 1.0;"/><path d="M146.5,270.125 L146.5,270.4052 L156.537,269.5726 L166.5741,270.3827 L176.6111,270.6579 L186.6481,269.1738 L196.6852,270.0214 L206.7222,269.5563 L216.7593,269.6137 L226.7963,270.0341 L236.8333,269.2032 L246.8704,270.8632 L256.9074,269.2846 L266.9444,269.8613 L276.9815,270.7009 L287.0185,270.0106 L297.0556,270.216 L307.0926,270.0824 L317.1296,270.363 L327.1667,270.4438 L337.2037,270.9059 L347.2407,271.0197 L357.2778,271.0307 L367.3148,270.4645 L377.3519,270.7431 L387.3889,271.0613 L397.4259,269.1634 L407.463,271.0297 L417.5,270.125 " fill="none" style="stroke: #000000; stroke-width: 1.0;"/><text fill="#000000" font-family="sans-serif" font-size="13" font-weight="bold" lengthAdjust="spacingAndGlyphs" textLength="9" x="153.5" y="265.0591">3</text><text fill="#000000" font-family="sans-serif" font-size="13" lengthAdjust="spacingAndGlyphs" textLength="149" x="166.5" y="265.0591">Authentication Request</text><polygon fill="#000000" points="157.5,295.2578,157.526,295.3229,155.4487,295.9296,153.5239,296.9176,151.5495,297.7815,149.4117,298.237,147.5,299.2578,147.4904,299.2338,149.4472,299.9258,151.4525,300.7391,153.4916,301.6367,155.4144,302.2438,157.5,303.2578,157.6305,303.3883,156.5514,302.3093,155.8534,301.6112,155.2018,300.9596,154.2798,300.0376,153.5,299.2578,153.5161,299.2739,154.2925,298.4503,155.1421,297.6999,155.9564,296.9142,156.838,296.1959,157.5,295.2578" style="stroke: #000000; stroke-width: 1.0;"/><path d="M151.5,299.2578 L151.5,299.5381 L161.3571,298.7054 L171.2143,299.5155 L181.0714,299.7907 L190.9286,298.3066 L200.7857,299.1542 L210.6429,298.6892 L220.5,298.7465 L230.3571,299.1669 L240.2143,298.336 L250.0714,299.996 L259.9286,298.4174 L269.7857,298.9941 L279.6429,299.8337 L289.5,299.1434 L299.3571,299.3488 L309.2143,299.2152 L319.0714,299.4958 L328.9286,299.5767 L338.7857,300.0387 L348.6429,300.1526 L358.5,300.1635 L368.3571,299.5973 L378.2143,299.8759 L388.0714,300.1941 L397.9286,298.2962 L407.7857,300.1625 L417.6429,298.8625 L427.5,299.2578 " fill="none" style="stroke: #000000; stroke-width: 1.0;"/><text fill="#000000" font-family="sans-serif" font-size="13" font-weight="bold" lengthAdjust="spacingAndGlyphs" textLength="9" x="163.5" y="294.1919">4</text><text fill="#000000" font-family="sans-serif" font-size="13" lengthAdjust="spacingAndGlyphs" textLength="159" x="176.5" y="294.1919">Authentication Response</text><path d="M3,352.8242 L3,353.1045 L12.9352,352.2718 L22.8704,353.0819 L32.8056,353.3571 L42.7407,351.873 L52.6759,352.7206 L62.6111,352.2556 L72.5463,352.3129 L82.4815,352.7333 L92.4167,351.9024 L102.3519,353.5624 L112.287,351.9838 L122.2222,352.5605 L132.1574,353.4001 L142.0926,352.7098 L152.0278,352.9152 L161.963,352.7816 L171.8981,353.0623 L181.8333,353.1431 L191.7685,353.6051 L201.7037,353.719 L211.6389,353.7299 L221.5741,353.1637 L231.5093,353.4423 L241.4444,353.7605 L251.3796,351.8626 L261.3148,353.7289 L271.25,352.4289 L281.1852,353.536 L291.1204,352.1642 L301.0556,352.7329 L310.9907,353.813 L320.9259,352.7592 L330.8611,352.9646 L340.7963,353.2757 L350.7315,353.3792 L360.6667,352.819 L370.6019,353.2072 L380.537,352.061 L390.4722,353.2034 L400.4074,353.5551 L410.3426,353.4169 L420.2778,353.6416 L430.213,352.1801 L440.1481,351.9546 L450.0833,351.9957 L460.0185,352.7457 L469.9537,352.5622 L479.8889,353.7328 L489.8241,352.5913 L499.7593,352.3668 L509.6944,353.1286 L519.6296,351.9351 L529.5648,352.1321 L539.5,352.8242 " fill="#EEEEEE" style="stroke: #000000; stroke-width: 1.0;"/><path d="M3,355.8242 L3,356.1045 L12.9352,355.2718 L22.8704,356.0819 L32.8056,356.3571 L42.7407,354.873 L52.6759,355.7206 L62.6111,355.2556 L72.5463,355.3129 L82.4815,355.7333 L92.4167,354.9024 L102.3519,356.5624 L112.287,354.9838 L122.2222,355.5605 L132.1574,356.4001 L142.0926,355.7098 L152.0278,355.9152 L161.963,355.7816 L171.8981,356.0623 L181.8333,356.1431 L191.7685,356.6051 L201.7037,356.719 L211.6389,356.7299 L221.5741,356.1637 L231.5093,356.4423 L241.4444,356.7605 L251.3796,354.8626 L261.3148,356.7289 L271.25,355.4289 L281.1852,356.536 L291.1204,355.1642 L301.0556,355.7329 L310.9907,356.813 L320.9259,355.7592 L330.8611,355.9646 L340.7963,356.2757 L350.7315,356.3792 L360.6667,355.819 L370.6019,356.2072 L380.537,355.061 L390.4722,356.2034 L400.4074,356.5551 L410.3426,356.4169 L420.2778,356.6416 L430.213,355.1801 L440.1481,354.9546 L450.0833,354.9957 L460.0185,355.7457 L469.9537,355.5622 L479.8889,356.7328 L489.8241,355.5913 L499.7593,355.3668 L509.6944,356.1286 L519.6296,354.9351 L529.5648,355.1321 L539.5,355.8242 " fill="#EEEEEE" style="stroke: #000000; stroke-width: 1.0;"/><polygon fill="#EEEEEE" filter="url(#fot1yglk1khd9)" points="183.25,342.2578,183.25,342.468,193.0278,341.8435,202.8056,342.4511,212.5833,342.6575,222.3611,341.5444,232.1389,342.1801,241.9167,341.8313,251.6944,341.8743,261.4722,342.1897,271.25,341.5664,281.0278,342.8115,290.8056,341.6275,300.5833,342.06,310.3611,342.6898,320.1389,342.172,329.9167,342.3261,339.6944,342.2259,349.4722,342.4363,359.25,342.2578,359.3297,342.2578,359.4452,346.8844,359.4737,351.5109,359.4764,356.1375,359.3349,360.7641,359.25,365.3906,359.25,365.8542,349.4722,366.0929,339.6944,364.6694,329.9167,366.0691,320.1389,365.0941,310.3611,365.9244,300.5833,364.8956,290.8056,365.3221,281.0278,366.1322,271.25,365.3419,261.4722,365.4959,251.6944,365.7293,241.9167,365.8069,232.1389,365.3867,222.3611,365.6778,212.5833,364.8182,202.8056,365.675,193.0278,365.9388,183.25,365.3906,183.3982,365.3906,183.4543,360.7641,183.089,356.1375,183.0326,351.5109,183.0429,346.8844,183.25,342.2578" style="stroke: #000000; stroke-width: 2.0;"/><text fill="#000000" font-family="sans-serif" font-size="13" font-weight="bold" lengthAdjust="spacingAndGlyphs" textLength="157" x="189.25" y="358.3247">only if challenge flow</text><polygon fill="#000000" points="61,392.5234,61.026,392.5885,58.9487,393.1952,57.0239,394.1833,55.0495,395.0471,52.9117,395.5026,51,396.5234,50.9904,396.4994,52.9472,397.1914,54.9525,398.0047,56.9916,398.9023,58.9144,399.5095,61,400.5234,61.1305,400.6539,60.0514,399.5749,59.3534,398.8768,58.7018,398.2252,57.7798,397.3032,57,396.5234,57.0161,396.5395,57.7925,395.7159,58.6421,394.9655,59.4564,394.1798,60.338,393.4615,61,392.5234" style="stroke: #000000; stroke-width: 1.0;"/><polygon fill="#000000" points="499.5,392.5234,499.526,392.5885,501.4487,393.1952,503.5239,394.1833,505.5495,395.0471,507.4117,395.5026,509.5,396.5234,509.4904,396.4994,507.4472,397.1914,505.4525,398.0047,503.4916,398.9023,501.4144,399.5095,499.5,400.5234,499.6305,400.6539,500.1514,399.5749,501.0534,398.8768,502.0018,398.2252,502.6798,397.3032,503.5,396.5234,503.5161,396.5395,502.6925,395.7159,501.9421,394.9655,501.1564,394.1798,500.438,393.4615,499.5,392.5234" style="stroke: #000000; stroke-width: 1.0;"/><path d="M55,396.5234 L55,396.8037 L65.0111,395.971 L75.0222,396.7812 L85.0333,397.0563 L95.0444,395.5722 L105.0556,396.4198 L115.0667,395.9548 L125.0778,396.0121 L135.0889,396.4326 L145.1,395.6016 L155.1111,397.2616 L165.1222,395.6831 L175.1333,396.2597 L185.1444,397.0994 L195.1556,396.4091 L205.1667,396.6144 L215.1778,396.4808 L225.1889,396.7615 L235.2,396.8423 L245.2111,397.3044 L255.2222,397.4182 L265.2333,397.4291 L275.2444,396.8629 L285.2556,397.1416 L295.2667,397.4597 L305.2778,395.5619 L315.2889,397.4281 L325.3,396.1281 L335.3111,397.2352 L345.3222,395.8634 L355.3333,396.4321 L365.3444,397.5122 L375.3556,396.4585 L385.3667,396.6638 L395.3778,396.9749 L405.3889,397.0784 L415.4,396.5182 L425.4111,396.9064 L435.4222,395.7602 L445.4333,396.9026 L455.4444,397.2544 L465.4556,397.1161 L475.4667,397.3408 L485.4778,395.8793 L495.4889,395.6539 L505.5,396.5234 " fill="none" style="stroke: #000000; stroke-width: 1.0; stroke-dasharray: 2.0,2.0;"/><text fill="#000000" font-family="sans-serif" font-size="13" font-weight="bold" lengthAdjust="spacingAndGlyphs" textLength="9" x="67" y="391.4575">5</text><text fill="#000000" font-family="sans-serif" font-size="13" lengthAdjust="spacingAndGlyphs" textLength="116" x="80" y="391.4575">Perform challenge</text><polygon fill="#000000" points="157.5,446.6563,157.526,446.7213,155.4487,447.328,153.5239,448.3161,151.5495,449.1799,149.4117,449.6355,147.5,450.6563,147.4904,450.6322,149.4472,451.3243,151.4525,452.1376,153.4916,453.0352,155.4144,453.6423,157.5,454.6563,157.6305,454.7867,156.5514,453.7077,155.8534,453.0096,155.2018,452.3581,154.2798,451.436,153.5,450.6563,153.5161,450.6723,154.2925,449.8487,155.1421,449.0983,155.9564,448.3126,156.838,447.5943,157.5,446.6563" style="stroke: #000000; stroke-width: 1.0;"/><path d="M151.5,450.6563 L151.5,450.9365 L161.4722,450.1038 L171.4444,450.914 L181.4167,451.1892 L191.3889,449.7051 L201.3611,450.5526 L211.3333,450.0876 L221.3056,450.1449 L231.2778,450.5654 L241.25,449.7344 L251.2222,451.3944 L261.1944,449.8159 L271.1667,450.3926 L281.1389,451.2322 L291.1111,450.5419 L301.0833,450.7472 L311.0556,450.6137 L321.0278,450.8943 L331,450.9751 L340.9722,451.4372 L350.9444,451.551 L360.9167,451.5619 L370.8889,450.9958 L380.8611,451.2744 L390.8333,451.5926 L400.8056,449.6947 L410.7778,451.5609 L420.75,450.2609 L430.7222,451.368 L440.6944,449.9962 L450.6667,450.5649 L460.6389,451.6451 L470.6111,450.5913 L480.5833,450.7967 L490.5556,451.1078 L500.5278,451.2112 L510.5,450.6563 " fill="none" style="stroke: #000000; stroke-width: 1.0;"/><text fill="#000000" font-family="sans-serif" font-size="13" font-weight="bold" lengthAdjust="spacingAndGlyphs" textLength="9" x="163.5" y="445.5903">6</text><text fill="#000000" font-family="sans-serif" font-size="13" lengthAdjust="spacingAndGlyphs" textLength="182" x="176.5" y="445.5903">Challenge complete callback</text><polygon fill="#000000" points="411.5,500.7891,411.526,500.8541,413.4487,501.4608,415.5239,502.4489,417.5495,503.3128,419.4117,503.7683,421.5,504.7891,421.4904,504.765,419.4472,505.4571,417.4525,506.2704,415.4916,507.168,413.4144,507.7751,411.5,508.7891,411.6305,508.9196,412.1514,507.8405,413.0534,507.1424,414.0018,506.4909,414.6798,505.5688,415.5,504.7891,415.5161,504.8051,414.6925,503.9815,413.9421,503.2311,413.1564,502.4454,412.438,501.7271,411.5,500.7891" style="stroke: #000000; stroke-width: 1.0;"/><path d="M146.5,504.7891 L146.5,505.0693 L156.537,504.2366 L166.5741,505.0468 L176.6111,505.322 L186.6481,503.8379 L196.6852,504.6854 L206.7222,504.2204 L216.7593,504.2777 L226.7963,504.6982 L236.8333,503.8672 L246.8704,505.5273 L256.9074,503.9487 L266.9444,504.5254 L276.9815,505.365 L287.0185,504.6747 L297.0556,504.88 L307.0926,504.7465 L317.1296,505.0271 L327.1667,505.1079 L337.2037,505.57 L347.2407,505.6838 L357.2778,505.6947 L367.3148,505.1286 L377.3519,505.4072 L387.3889,505.7254 L397.4259,503.8275 L407.463,505.6937 L417.5,504.7891 " fill="none" style="stroke: #000000; stroke-width: 1.0;"/><text fill="#000000" font-family="sans-serif" font-size="13" font-weight="bold" lengthAdjust="spacingAndGlyphs" textLength="9" x="153.5" y="499.7231">7</text><text fill="#000000" font-family="sans-serif" font-size="13" lengthAdjust="spacingAndGlyphs" textLength="147" x="166.5" y="499.7231">Fetch challenge results</text><polygon fill="#000000" points="157.5,529.9219,157.526,529.9869,155.4487,530.5936,153.5239,531.5817,151.5495,532.4456,149.4117,532.9011,147.5,533.9219,147.4904,533.8978,149.4472,534.5899,151.4525,535.4032,153.4916,536.3008,155.4144,536.9079,157.5,537.9219,157.6305,538.0524,156.5514,536.9733,155.8534,536.2753,155.2018,535.6237,154.2798,534.7017,153.5,533.9219,153.5161,533.938,154.2925,533.1143,155.1421,532.364,155.9564,531.5782,156.838,530.8599,157.5,529.9219" style="stroke: #000000; stroke-width: 1.0;"/><path d="M151.5,533.9219 L151.5,534.2021 L161.3571,533.3694 L171.2143,534.1796 L181.0714,534.4548 L190.9286,532.9707 L200.7857,533.8183 L210.6429,533.3532 L220.5,533.4105 L230.3571,533.831 L240.2143,533 L250.0714,534.6601 L259.9286,533.0815 L269.7857,533.6582 L279.6429,534.4978 L289.5,533.8075 L299.3571,534.0129 L309.2143,533.8793 L319.0714,534.1599 L328.9286,534.2407 L338.7857,534.7028 L348.6429,534.8166 L358.5,534.8276 L368.3571,534.2614 L378.2143,534.54 L388.0714,534.8582 L397.9286,532.9603 L407.7857,534.8266 L417.6429,533.5265 L427.5,533.9219 " fill="none" style="stroke: #000000; stroke-width: 1.0;"/><text fill="#000000" font-family="sans-serif" font-size="13" font-weight="bold" lengthAdjust="spacingAndGlyphs" textLength="9" x="163.5" y="528.856">8</text><text fill="#000000" font-family="sans-serif" font-size="13" lengthAdjust="spacingAndGlyphs" textLength="89" x="176.5" y="528.856">Return results</text><path d="M8,571.9219 L8.1868,571.9219 L7.6317,576.9219 L8.1718,581.9219 L8.3553,586.9219 L7.3659,591.9219 L8,596.9219 L8,596.7146 L17.8889,595.7846 L27.7778,595.8992 L37.6667,596.7401 L47.5556,595.0782 L57.4444,598.3983 L67.3333,595.2411 L77.2222,596.3945 L87.1111,598.0737 L97,596.6931 L106.8889,597.1038 L116.7778,596.8367 L126.6667,597.3979 L136.5556,597.5596 L146.4444,598.4837 L156.3333,598.7114 L166.2222,598.7332 L176.1111,597.6009 L186,596.9219 L186.4121,596.9219 L186.6242,593.9219 L185.3589,590.9219 L186.6031,587.9219 L185.7364,584.9219 L186,581.9219 L186.3355,582.2574 L183.6889,579.6107 L181.9569,577.8788 L180.4661,576.388 L177.9694,573.8912 L176,571.9219 L176,572.2027 L166.1176,572.8249 L156.2353,573.0318 L146.3529,571.9115 L136.4706,572.6878 L126.5882,570.3954 L116.7059,572.6802 L106.8235,573.3837 L96.9412,573.1073 L87.0588,573.5566 L77.1765,570.6337 L67.2941,570.1827 L57.4118,570.2648 L47.5294,571.7649 L37.6471,571.3978 L27.7647,573.739 L17.8824,571.4561 L8,571.9219 " fill="#ECECEC" filter="url(#fot1yglk1khd9)" style="stroke: #383838; stroke-width: 1.0;"/><path d="M176,571.9219 L175.6951,571.9219 L176.2029,573.9219 L175.4073,575.9219 L175.5386,577.9219 L176.5768,579.9219 L176,581.9219 L176,582.3091 L178,582.5748 L180,581.6358 L182,582.2056 L184,582.4467 L186,581.9219 L185.7031,581.6249 L183.9397,579.8616 L182.0792,578.0011 L180.4097,576.3315 L177.9974,573.9192 L176,571.9219 " fill="#ECECEC" style="stroke: #383838; stroke-width: 1.0;"/><text fill="#000000" font-family="sans-serif" font-size="13" lengthAdjust="spacingAndGlyphs" textLength="157" x="14" y="588.9888">Proceed to authorization</text><!--MD5=[c0e294d9168f195385118a20bae817a7]
@startuml
title Authentication Flow
autonumber
skinparam handwritten true
skinparam monochrome true

skinparam sequence {
	ArrowColor Black
	ActorBorderColor black
	LifeLineBorderColor black

	ParticipantBorderColor black
	ParticipantFontColor black
	ParticipantBackgroundColor white

	ActorFontColor black
	ActorBackgroundColor white

  NoteBackgroundColor white
}


actor Cardholder
participant Requestor
participant "3dsecure.io"
participant ACS

note over Cardholder, Requestor
  Begin transaction
end note
Requestor -> "3dsecure.io": Versioning/3DS-Method determination
activate "3dsecure.io"

"3dsecure.io" -> Requestor: Card Range Data
deactivate "3dsecure.io"

|||

Requestor -> "3dsecure.io": Authentication Request
activate "3dsecure.io"
"3dsecure.io" -> Requestor: Authentication Response
deactivate "3dsecure.io"

|||

== only if challenge flow ==
Cardholder <- -> ACS: Perform challenge

|||

ACS -> Requestor: Challenge complete callback

|||

Requestor -> "3dsecure.io" : Fetch challenge results
activate "3dsecure.io"
"3dsecure.io" -> Requestor : Return results
deactivate "3dsecure.io"

|||

note over Cardholder, Requestor
  Proceed to authorization
end note
@enduml

PlantUML version 1.2019.12(Sun Nov 03 11:24:54 CET 2019)
(GPL source distribution)
Java Runtime: OpenJDK Runtime Environment
JVM: OpenJDK 64-Bit Server VM
Java Version: 13.0.1+9
Operating System: Linux
Default Encoding: UTF-8
Language: en
Country: US
--></g></svg>