<svg xmlns="http://www.w3.org/2000/svg" viewBox="0 0 1089.5 289.27"><defs><style>.cls-1,.cls-7{fill:#fff;}.cls-2{fill:#709ba0;}.cls-3{fill:#8baeb3;}.cls-4{fill:#99b8bb;}.cls-5{fill:#639297;}.cls-6{fill:#7da4aa;}.cls-7{font-size:123px;font-family:Montserrat-Medium, Montserrat;font-weight:500;}.cls-8{letter-spacing:-0.01em;}</style></defs><title>Aktiv 4</title><g id="Lag_2" data-name="Lag 2"><g id="Lag_1-2" data-name="Lag 1"><path class="cls-1" d="M245.67,212V76.39a8.83,8.83,0,0,0-4.31-7.58l-114-67.58a8.81,8.81,0,0,0-9,0L4.32,68.81A8.81,8.81,0,0,0,0,76.39V212a8.8,8.8,0,0,0,4.32,7.58l114,67.58a8.81,8.81,0,0,0,9,0l114-67.58A8.81,8.81,0,0,0,245.67,212Z"/><path class="cls-2" d="M123,32.1V146.54a11.68,11.68,0,0,0-5.81,1.55l-66.55,38L40.47,180.3A8.8,8.8,0,0,1,36,172.64V84.91a8.81,8.81,0,0,1,4.47-7.67l77.69-44A8.74,8.74,0,0,1,123,32.1Z"/><path class="cls-3" d="M209,84.91v87.73a8.8,8.8,0,0,1-4.47,7.66l-9.6,5.44-66.12-37.66a11.7,11.7,0,0,0-5.81-1.54V32.1a8.67,8.67,0,0,1,3.84,1.13l77.69,44A8.81,8.81,0,0,1,209,84.91Z"/><path class="cls-4" d="M194.93,185.74l-68.09,38.57a8.67,8.67,0,0,1-3.84,1.13v-78.9a11.7,11.7,0,0,1,5.81,1.54Z"/><path class="cls-5" d="M123,146.54v78.9a8.74,8.74,0,0,1-4.84-1.13L50.64,186.06l66.55-38A11.68,11.68,0,0,1,123,146.54Z"/><path class="cls-6" d="M203.1,210.79,128.81,253.1a11.7,11.7,0,0,1-11.62,0L43,210.78a11.73,11.73,0,0,1,0-20.38l7.6-4.34,67.52,38.25a8.8,8.8,0,0,0,8.68,0l68.09-38.57,8.17,4.65A11.74,11.74,0,0,1,203.1,210.79Z"/><text class="cls-7" transform="translate(348.43 186.56)">3dsecure.io</text></g></g></svg>