<?xml version="1.0" encoding="UTF-8" standalone="no"?><svg xmlns="http://www.w3.org/2000/svg" xmlns:xlink="http://www.w3.org/1999/xlink" contentScriptType="application/ecmascript" contentStyleType="text/css" height="757px" preserveAspectRatio="none" style="width:551px;height:757px;" version="1.1" viewBox="0 0 551 757" width="551px" zoomAndPan="magnify"><defs><filter height="300%" id="f1462g6sml3ln5" width="300%" x="-1" y="-1"><feGaussianBlur result="blurOut" stdDeviation="2.0"/><feColorMatrix in="blurOut" result="blurOut2" type="matrix" values="0 0 0 0 0 0 0 0 0 0 0 0 0 0 0 0 0 0 .4 0"/><feOffset dx="4.0" dy="4.0" in="blurOut2" result="blurOut3"/><feBlend in="SourceGraphic" in2="blurOut3" mode="normal"/></filter></defs><g><text fill="#000000" font-family="sans-serif" font-size="14" font-weight="bold" lengthAdjust="spacingAndGlyphs" textLength="157" x="192.75" y="22.9951">Authentication Flow</text><polygon fill="#FFFFFF" filter="url(#f1462g6sml3ln5)" points="423.5,186.8594,423.5,186.9294,425.5,186.7213,427.5,186.9238,429.5,186.9926,431.5,186.6216,433.5,186.8594,433.4741,186.8594,433.3578,192.6859,433.3722,198.5125,433.4773,204.3391,433.2695,210.1656,433.5,215.9922,433.5,216.1767,431.5,215.7821,429.5,215.9263,427.5,216.1362,425.5,215.9636,423.5,215.9922,423.5227,215.9922,423.4894,210.1656,423.5595,204.3391,423.5797,198.5125,423.6952,192.6859,423.5,186.8594" style="stroke: #000000; stroke-width: 1.0;"/><polygon fill="#FFFFFF" filter="url(#f1462g6sml3ln5)" points="423.5,324.2578,423.5,324.3279,425.5,324.1197,427.5,324.3222,429.5,324.391,431.5,324.02,433.5,324.2578,433.4741,324.2578,433.3578,330.0844,433.3722,335.9109,433.4773,341.7375,433.2695,347.5641,433.5,353.3906,433.5,353.5752,431.5,353.1805,429.5,353.3247,427.5,353.5346,425.5,353.362,423.5,353.3906,423.5227,353.3906,423.4894,347.5641,423.5595,341.7375,423.5797,335.9109,423.6952,330.0844,423.5,324.2578" style="stroke: #000000; stroke-width: 1.0;"/><polygon fill="#FFFFFF" filter="url(#f1462g6sml3ln5)" points="423.5,558.9219,423.5,558.9919,425.5,558.7838,427.5,558.9863,429.5,559.0551,431.5,558.6841,433.5,558.9219,433.4741,558.9219,433.3578,564.7484,433.3722,570.575,433.4773,576.4016,433.2695,582.2281,433.5,588.0547,433.5,588.2392,431.5,587.8446,429.5,587.9888,427.5,588.1987,425.5,588.0261,423.5,588.0547,423.5227,588.0547,423.4894,582.2281,423.5595,576.4016,423.5797,570.575,423.6952,564.7484,423.5,558.9219" style="stroke: #000000; stroke-width: 1.0;"/><path d="M50,116.5938 L50.2802,116.5938 L49.4476,126.6591 L50.2577,136.7244 L50.5329,146.7898 L49.0488,156.8551 L49.8964,166.9205 L49.4313,176.9858 L49.4887,187.0511 L49.9091,197.1165 L49.0782,207.1818 L50.7382,217.2472 L49.1596,227.3125 L49.7363,237.3778 L50.5759,247.4432 L49.8856,257.5085 L50.091,267.5739 L49.9574,277.6392 L50.238,287.7045 L50.3188,297.7699 L50.7809,307.8352 L50.8947,317.9006 L50.9057,327.9659 L50.3395,338.0313 L50.6181,348.0966 L50.9363,358.1619 L49.0384,368.2273 L50.9047,378.2926 L49.6047,388.358 L50.7117,398.4233 L49.34,408.4886 L49.9087,418.554 L50.9888,428.6193 L49.935,438.6847 L50.1404,448.75 L50.4515,458.8153 L50.555,468.8807 L49.9948,478.946 L50.383,489.0114 L49.2368,499.0767 L50.3792,509.142 L50.7309,519.2074 L50.5927,529.2727 L50.8174,539.3381 L49.3559,549.4034 L49.1304,559.4688 L49.1715,569.5341 L49.9215,579.5994 L49.738,589.6648 L50.9085,599.7301 L49.7671,609.7955 L49.5426,619.8608 L50.3044,629.9261 L49.1109,639.9915 L49.3078,650.0568 L50.8653,660.1222 L50,670.1875 " fill="none" style="stroke: #000000; stroke-width: 1.0; stroke-dasharray: 5.0,5.0;"/><path d="M146,116.5938 L146.2802,116.5938 L145.4476,126.6591 L146.2577,136.7244 L146.5329,146.7898 L145.0488,156.8551 L145.8964,166.9205 L145.4313,176.9858 L145.4887,187.0511 L145.9091,197.1165 L145.0782,207.1818 L146.7382,217.2472 L145.1596,227.3125 L145.7363,237.3778 L146.5759,247.4432 L145.8856,257.5085 L146.091,267.5739 L145.9574,277.6392 L146.238,287.7045 L146.3188,297.7699 L146.7809,307.8352 L146.8947,317.9006 L146.9057,327.9659 L146.3395,338.0313 L146.6181,348.0966 L146.9363,358.1619 L145.0384,368.2273 L146.9047,378.2926 L145.6047,388.358 L146.7117,398.4233 L145.34,408.4886 L145.9087,418.554 L146.9888,428.6193 L145.935,438.6847 L146.1404,448.75 L146.4515,458.8153 L146.555,468.8807 L145.9948,478.946 L146.383,489.0114 L145.2368,499.0767 L146.3792,509.142 L146.7309,519.2074 L146.5927,529.2727 L146.8174,539.3381 L145.3559,549.4034 L145.1304,559.4688 L145.1715,569.5341 L145.9215,579.5994 L145.738,589.6648 L146.9085,599.7301 L145.7671,609.7955 L145.5426,619.8608 L146.3044,629.9261 L145.1109,639.9915 L145.3078,650.0568 L146.8653,660.1222 L146,670.1875 " fill="none" style="stroke: #000000; stroke-width: 1.0; stroke-dasharray: 5.0,5.0;"/><path d="M428.5,116.5938 L428.7802,116.5938 L427.9476,126.6591 L428.7577,136.7244 L429.0329,146.7898 L427.5488,156.8551 L428.3964,166.9205 L427.9313,176.9858 L427.9887,187.0511 L428.4091,197.1165 L427.5782,207.1818 L429.2382,217.2472 L427.6596,227.3125 L428.2363,237.3778 L429.0759,247.4432 L428.3856,257.5085 L428.591,267.5739 L428.4574,277.6392 L428.738,287.7045 L428.8188,297.7699 L429.2809,307.8352 L429.3947,317.9006 L429.4057,327.9659 L428.8395,338.0313 L429.1181,348.0966 L429.4363,358.1619 L427.5384,368.2273 L429.4047,378.2926 L428.1047,388.358 L429.2117,398.4233 L427.84,408.4886 L428.4087,418.554 L429.4888,428.6193 L428.435,438.6847 L428.6404,448.75 L428.9515,458.8153 L429.055,468.8807 L428.4948,478.946 L428.883,489.0114 L427.7368,499.0767 L428.8792,509.142 L429.2309,519.2074 L429.0927,529.2727 L429.3174,539.3381 L427.8559,549.4034 L427.6304,559.4688 L427.6715,569.5341 L428.4215,579.5994 L428.238,589.6648 L429.4085,599.7301 L428.2671,609.7955 L428.0426,619.8608 L428.8044,629.9261 L427.6109,639.9915 L427.8078,650.0568 L429.3653,660.1222 L428.5,670.1875 " fill="none" style="stroke: #000000; stroke-width: 1.0; stroke-dasharray: 5.0,5.0;"/><path d="M511.5,116.5938 L511.7802,116.5938 L510.9476,126.6591 L511.7577,136.7244 L512.0329,146.7898 L510.5488,156.8551 L511.3964,166.9205 L510.9313,176.9858 L510.9887,187.0511 L511.4091,197.1165 L510.5782,207.1818 L512.2382,217.2472 L510.6596,227.3125 L511.2363,237.3778 L512.0759,247.4432 L511.3856,257.5085 L511.591,267.5739 L511.4574,277.6392 L511.738,287.7045 L511.8188,297.7699 L512.2809,307.8352 L512.3947,317.9006 L512.4057,327.9659 L511.8395,338.0313 L512.1181,348.0966 L512.4363,358.1619 L510.5384,368.2273 L512.4047,378.2926 L511.1047,388.358 L512.2117,398.4233 L510.84,408.4886 L511.4087,418.554 L512.4888,428.6193 L511.435,438.6847 L511.6404,448.75 L511.9515,458.8153 L512.055,468.8807 L511.4948,478.946 L511.883,489.0114 L510.7368,499.0767 L511.8792,509.142 L512.2309,519.2074 L512.0927,529.2727 L512.3174,539.3381 L510.8559,549.4034 L510.6304,559.4688 L510.6715,569.5341 L511.4215,579.5994 L511.238,589.6648 L512.4085,599.7301 L511.2671,609.7955 L511.0426,619.8608 L511.8044,629.9261 L510.6109,639.9915 L510.8078,650.0568 L512.3653,660.1222 L511.5,670.1875 " fill="none" style="stroke: #000000; stroke-width: 1.0; stroke-dasharray: 5.0,5.0;"/><text fill="#000000" font-family="sans-serif" font-size="14" lengthAdjust="spacingAndGlyphs" textLength="76" x="9" y="113.292">Cardholder</text><polygon fill="#FFFFFF" filter="url(#f1462g6sml3ln5)" points="58.0442,45.2428,56.8715,46.8451,55.4845,49.1919,53.5008,50.7735,51.4163,51.6384,49.7542,51.7135,47.618,50.6318,45.6023,49.9252,44.0724,48.4905,43.2699,46.848,42.7939,45.5402,42.3277,43.8319,41.5709,42.3619,42.1525,40.9267,42.662,39.3545,44.574,38.111,45.9192,36.4977,47.5843,35.9619,49.5637,35.5005,52.1021,35.7747,53.4924,36.4304,55.1089,36.7276,57.0743,38.7412,57.7595,40.867,58.0571,42.3175,57.72,44.7077" style="stroke: #000000; stroke-width: 2.0;"/><path d="M50,51.2969 L50.1868,51.2969 L49.6317,56.6969 L50.1718,62.0969 L50.3553,67.4969 L49.3659,72.8969 L50,78.2969 M37,59.2969 L37,59.2278 L42.2,58.9178 L47.4,58.956 L52.6,59.2363 L57.8,58.6823 L63,59.2969 M50,78.2969 L50.3719,78.6192 L46.9766,80.93 L44.6672,84.1817 L42.4901,87.5483 L39.5424,90.2469 L37,93.2969 M50,78.2969 L50.0458,78.3366 L52.5785,81.2783 L55.3199,84.4008 L57.9606,87.4361 L60.7934,90.6378 L63,93.2969 " fill="none" filter="url(#f1462g6sml3ln5)" style="stroke: #000000; stroke-width: 2.0;"/><text fill="#000000" font-family="sans-serif" font-size="14" lengthAdjust="spacingAndGlyphs" textLength="76" x="9" y="682.1826">Cardholder</text><polygon fill="#FFFFFF" filter="url(#f1462g6sml3ln5)" points="58.0442,697.4303,56.8715,699.0326,55.4845,701.3794,53.5008,702.961,51.4163,703.8259,49.7542,703.901,47.618,702.8193,45.6023,702.1127,44.0724,700.678,43.2699,699.0355,42.7939,697.7277,42.3277,696.0194,41.5709,694.5494,42.1525,693.1142,42.662,691.542,44.574,690.2985,45.9192,688.6852,47.5843,688.1494,49.5637,687.688,52.1021,687.9622,53.4924,688.6179,55.1089,688.9151,57.0743,690.9287,57.7595,693.0545,58.0571,694.505,57.72,696.8952" style="stroke: #000000; stroke-width: 2.0;"/><path d="M50,703.4844 L50.1868,703.4844 L49.6317,708.8844 L50.1718,714.2844 L50.3553,719.6844 L49.3659,725.0844 L50,730.4844 M37,711.4844 L37,711.4153 L42.2,711.1053 L47.4,711.1435 L52.6,711.4238 L57.8,710.8698 L63,711.4844 M50,730.4844 L50.3719,730.8067 L46.9766,733.1175 L44.6672,736.3692 L42.4901,739.7358 L39.5424,742.4344 L37,745.4844 M50,730.4844 L50.0458,730.5241 L52.5785,733.4658 L55.3199,736.5883 L57.9606,739.6236 L60.7934,742.8253 L63,745.4844 " fill="none" filter="url(#f1462g6sml3ln5)" style="stroke: #000000; stroke-width: 2.0;"/><polygon fill="#FFFFFF" filter="url(#f1462g6sml3ln5)" points="101,81.2969,101,81.5071,110.6667,80.8826,120.3333,81.4902,130,81.6966,139.6667,80.5835,149.3333,81.2192,159,80.8704,168.6667,80.9134,178.3333,81.2287,188,81.2969,187.7695,81.2969,188.1845,87.3563,187.7899,93.4156,187.9341,99.475,188.144,105.5344,188,111.5938,188,111.508,178.3333,111.662,168.6667,111.5618,159,111.7723,149.3333,111.8329,139.6667,112.1794,130,112.2648,120.3333,112.273,110.6667,111.8484,101,111.5938,101.1545,111.5938,101.2341,105.5344,100.7596,99.475,101.2262,93.4156,100.9012,87.3563,101,81.2969" style="stroke: #000000; stroke-width: 1.5;"/><text fill="#000000" font-family="sans-serif" font-size="14" lengthAdjust="spacingAndGlyphs" textLength="73" x="108" y="101.292">Requestor</text><polygon fill="#FFFFFF" filter="url(#f1462g6sml3ln5)" points="101,669.1875,101,669.3977,110.6667,668.7732,120.3333,669.3808,130,669.5872,139.6667,668.4741,149.3333,669.1098,159,668.761,168.6667,668.804,178.3333,669.1193,188,669.1875,187.7695,669.1875,188.1845,675.2469,187.7899,681.3063,187.9341,687.3656,188.144,693.425,188,699.4844,188,699.3986,178.3333,699.5526,168.6667,699.4524,159,699.6629,149.3333,699.7235,139.6667,700.0701,130,700.1554,120.3333,700.1636,110.6667,699.739,101,699.4844,101.1545,699.4844,101.2341,693.425,100.7596,687.3656,101.2262,681.3063,100.9012,675.2469,101,669.1875" style="stroke: #000000; stroke-width: 1.5;"/><text fill="#000000" font-family="sans-serif" font-size="14" lengthAdjust="spacingAndGlyphs" textLength="73" x="108" y="689.1826">Requestor</text><polygon fill="#FFFFFF" filter="url(#f1462g6sml3ln5)" points="378.5,81.2969,378.5,81.5071,388.1,80.8826,397.7,81.4902,407.3,81.6966,416.9,80.5835,426.5,81.2192,436.1,80.8704,445.7,80.9134,455.3,81.2287,464.9,80.6055,474.5,81.2969,474.6845,81.2969,474.2899,87.3563,474.4341,93.4156,474.644,99.475,474.4714,105.5344,474.5,111.5938,474.5,111.662,464.9,111.5618,455.3,111.7723,445.7,111.8329,436.1,112.1794,426.5,112.2648,416.9,112.273,407.3,111.8484,397.7,112.0573,388.1,112.296,378.5,111.5938,378.2596,111.5938,378.7262,105.5344,378.4012,99.475,378.6779,93.4156,378.335,87.3563,378.5,81.2969" style="stroke: #000000; stroke-width: 1.5;"/><text fill="#000000" font-family="sans-serif" font-size="14" lengthAdjust="spacingAndGlyphs" textLength="82" x="385.5" y="101.292">3dsecure.io</text><polygon fill="#FFFFFF" filter="url(#f1462g6sml3ln5)" points="378.5,669.1875,378.5,669.3977,388.1,668.7732,397.7,669.3808,407.3,669.5872,416.9,668.4741,426.5,669.1098,436.1,668.761,445.7,668.804,455.3,669.1193,464.9,668.4961,474.5,669.1875,474.6845,669.1875,474.2899,675.2469,474.4341,681.3063,474.644,687.3656,474.4714,693.425,474.5,699.4844,474.5,699.5526,464.9,699.4524,455.3,699.6629,445.7,699.7235,436.1,700.0701,426.5,700.1554,416.9,700.1636,407.3,699.739,397.7,699.948,388.1,700.1866,378.5,699.4844,378.2596,699.4844,378.7262,693.425,378.4012,687.3656,378.6779,681.3063,378.335,675.2469,378.5,669.1875" style="stroke: #000000; stroke-width: 1.5;"/><text fill="#000000" font-family="sans-serif" font-size="14" lengthAdjust="spacingAndGlyphs" textLength="82" x="385.5" y="689.1826">3dsecure.io</text><polygon fill="#FFFFFF" filter="url(#f1462g6sml3ln5)" points="488.5,81.2969,488.5,81.3669,496.9,81.1588,505.3,81.3613,513.7,81.4301,522.1,81.0591,530.5,81.2969,530.4741,81.2969,530.3578,87.3563,530.3722,93.4156,530.4773,99.475,530.2695,105.5344,530.5,111.5938,530.5,111.7783,522.1,111.3837,513.7,111.5278,505.3,111.7377,496.9,111.5652,488.5,111.5938,488.5227,111.5938,488.4894,105.5344,488.5595,99.475,488.5797,93.4156,488.6952,87.3563,488.5,81.2969" style="stroke: #000000; stroke-width: 1.5;"/><text fill="#000000" font-family="sans-serif" font-size="14" lengthAdjust="spacingAndGlyphs" textLength="28" x="495.5" y="101.292">ACS</text><polygon fill="#FFFFFF" filter="url(#f1462g6sml3ln5)" points="488.5,669.1875,488.5,669.2576,496.9,669.0494,505.3,669.2519,513.7,669.3207,522.1,668.9497,530.5,669.1875,530.4741,669.1875,530.3578,675.2469,530.3722,681.3063,530.4773,687.3656,530.2695,693.425,530.5,699.4844,530.5,699.6689,522.1,699.2743,513.7,699.4185,505.3,699.6284,496.9,699.4558,488.5,699.4844,488.5227,699.4844,488.4894,693.425,488.5595,687.3656,488.5797,681.3063,488.6952,675.2469,488.5,669.1875" style="stroke: #000000; stroke-width: 1.5;"/><text fill="#000000" font-family="sans-serif" font-size="14" lengthAdjust="spacingAndGlyphs" textLength="28" x="495.5" y="689.1826">ACS</text><polygon fill="#FFFFFF" filter="url(#f1462g6sml3ln5)" points="423.5,186.8594,423.5,186.9294,425.5,186.7213,427.5,186.9238,429.5,186.9926,431.5,186.6216,433.5,186.8594,433.4741,186.8594,433.3578,192.6859,433.3722,198.5125,433.4773,204.3391,433.2695,210.1656,433.5,215.9922,433.5,216.1767,431.5,215.7821,429.5,215.9263,427.5,216.1362,425.5,215.9636,423.5,215.9922,423.5227,215.9922,423.4894,210.1656,423.5595,204.3391,423.5797,198.5125,423.6952,192.6859,423.5,186.8594" style="stroke: #000000; stroke-width: 1.0;"/><polygon fill="#FFFFFF" filter="url(#f1462g6sml3ln5)" points="423.5,324.2578,423.5,324.3279,425.5,324.1197,427.5,324.3222,429.5,324.391,431.5,324.02,433.5,324.2578,433.4741,324.2578,433.3578,330.0844,433.3722,335.9109,433.4773,341.7375,433.2695,347.5641,433.5,353.3906,433.5,353.5752,431.5,353.1805,429.5,353.3247,427.5,353.5346,425.5,353.362,423.5,353.3906,423.5227,353.3906,423.4894,347.5641,423.5595,341.7375,423.5797,335.9109,423.6952,330.0844,423.5,324.2578" style="stroke: #000000; stroke-width: 1.0;"/><polygon fill="#FFFFFF" filter="url(#f1462g6sml3ln5)" points="423.5,558.9219,423.5,558.9919,425.5,558.7838,427.5,558.9863,429.5,559.0551,431.5,558.6841,433.5,558.9219,433.4741,558.9219,433.3578,564.7484,433.3722,570.575,433.4773,576.4016,433.2695,582.2281,433.5,588.0547,433.5,588.2392,431.5,587.8446,429.5,587.9888,427.5,588.1987,425.5,588.0261,423.5,588.0547,423.5227,588.0547,423.4894,582.2281,423.5595,576.4016,423.5797,570.575,423.6952,564.7484,423.5,558.9219" style="stroke: #000000; stroke-width: 1.0;"/><path d="M9,131.5938 L9.1868,131.5938 L8.6317,136.5938 L9.1718,141.5938 L9.3553,146.5938 L8.3659,151.5938 L9,156.5938 L9,156.3865 L18.8889,155.4564 L28.7778,155.5711 L38.6667,156.412 L48.5556,154.7501 L58.4444,158.0701 L68.3333,154.913 L78.2222,156.0664 L88.1111,157.7456 L98,156.365 L107.8889,156.7757 L117.7778,156.5086 L127.6667,157.0698 L137.5556,157.2314 L147.4444,158.1556 L157.3333,158.3832 L167.2222,158.4051 L177.1111,157.2728 L187,156.5938 L187.4121,156.5938 L187.6242,153.5938 L186.3589,150.5938 L187.6031,147.5938 L186.7364,144.5938 L187,141.5938 L187.3355,141.9293 L184.6889,139.2826 L182.9569,137.5507 L181.4661,136.0599 L178.9694,133.5631 L177,131.5938 L177,131.8746 L167.1176,132.4968 L157.2353,132.7037 L147.3529,131.5833 L137.4706,132.3597 L127.5882,130.0673 L117.7059,132.3521 L107.8235,133.0556 L97.9412,132.7792 L88.0588,133.2285 L78.1765,130.3055 L68.2941,129.8546 L58.4118,129.9367 L48.5294,131.4367 L38.6471,131.0697 L28.7647,133.4108 L18.8824,131.1279 L9,131.5938 " fill="#ECECEC" filter="url(#f1462g6sml3ln5)" style="stroke: #383838; stroke-width: 1.0;"/><path d="M177,131.5938 L176.6951,131.5938 L177.2029,133.5938 L176.4073,135.5938 L176.5386,137.5938 L177.5768,139.5938 L177,141.5938 L177,141.981 L179,142.2466 L181,141.3077 L183,141.8775 L185,142.1186 L187,141.5938 L186.7031,141.2968 L184.9397,139.5335 L183.0792,137.6729 L181.4097,136.0034 L178.9974,133.5911 L177,131.5938 " fill="#ECECEC" style="stroke: #383838; stroke-width: 1.0;"/><text fill="#000000" font-family="sans-serif" font-size="13" lengthAdjust="spacingAndGlyphs" textLength="112" x="35.5" y="148.6606">Begin transaction</text><polygon fill="#000000" points="411.5,182.8594,411.526,182.9244,413.4487,183.5311,415.5239,184.5192,417.5495,185.3831,419.4117,185.8386,421.5,186.8594,421.4904,186.8353,419.4472,187.5274,417.4525,188.3407,415.4916,189.2383,413.4144,189.8454,411.5,190.8594,411.6305,190.9899,412.1514,189.9108,413.0534,189.2128,414.0018,188.5612,414.6798,187.6392,415.5,186.8594,415.5161,186.8755,414.6925,186.0518,413.9421,185.3015,413.1564,184.5157,412.438,183.7974,411.5,182.8594" style="stroke: #000000; stroke-width: 1.0;"/><path d="M146.5,186.8594 L146.5,187.1396 L156.537,186.3069 L166.5741,187.1171 L176.6111,187.3923 L186.6481,185.9082 L196.6852,186.7558 L206.7222,186.2907 L216.7593,186.348 L226.7963,186.7685 L236.8333,185.9375 L246.8704,187.5976 L256.9074,186.019 L266.9444,186.5957 L276.9815,187.4353 L287.0185,186.745 L297.0556,186.9504 L307.0926,186.8168 L317.1296,187.0974 L327.1667,187.1782 L337.2037,187.6403 L347.2407,187.7541 L357.2778,187.7651 L367.3148,187.1989 L377.3519,187.4775 L387.3889,187.7957 L397.4259,185.8978 L407.463,187.7641 L417.5,186.8594 " fill="none" style="stroke: #000000; stroke-width: 1.0;"/><text fill="#000000" font-family="sans-serif" font-size="13" font-weight="bold" lengthAdjust="spacingAndGlyphs" textLength="9" x="153.5" y="181.7935">1</text><text fill="#000000" font-family="sans-serif" font-size="13" lengthAdjust="spacingAndGlyphs" textLength="245" x="166.5" y="181.7935">Versioning/3DS-Method determination</text><polygon fill="#000000" points="157.5,211.9922,157.526,212.0572,155.4487,212.664,153.5239,213.652,151.5495,214.5159,149.4117,214.9714,147.5,215.9922,147.4904,215.9681,149.4472,216.6602,151.4525,217.4735,153.4916,218.3711,155.4144,218.9782,157.5,219.9922,157.6305,220.1227,156.5514,219.0436,155.8534,218.3456,155.2018,217.694,154.2798,216.772,153.5,215.9922,153.5161,216.0083,154.2925,215.1847,155.1421,214.4343,155.9564,213.6486,156.838,212.9302,157.5,211.9922" style="stroke: #000000; stroke-width: 1.0;"/><path d="M151.5,215.9922 L151.5,216.2724 L161.3571,215.4398 L171.2143,216.2499 L181.0714,216.5251 L190.9286,215.041 L200.7857,215.8886 L210.6429,215.4235 L220.5,215.4809 L230.3571,215.9013 L240.2143,215.0704 L250.0714,216.7304 L259.9286,215.1518 L269.7857,215.7285 L279.6429,216.5681 L289.5,215.8778 L299.3571,216.0832 L309.2143,215.9496 L319.0714,216.2302 L328.9286,216.311 L338.7857,216.7731 L348.6429,216.8869 L358.5,216.8979 L368.3571,216.3317 L378.2143,216.6103 L388.0714,216.9285 L397.9286,215.0306 L407.7857,216.8969 L417.6429,215.5968 L427.5,215.9922 " fill="none" style="stroke: #000000; stroke-width: 1.0;"/><text fill="#000000" font-family="sans-serif" font-size="13" font-weight="bold" lengthAdjust="spacingAndGlyphs" textLength="9" x="163.5" y="210.9263">2</text><text fill="#000000" font-family="sans-serif" font-size="13" lengthAdjust="spacingAndGlyphs" textLength="109" x="176.5" y="210.9263">Card Range Data</text><polygon fill="#000000" points="499.5,266.125,499.526,266.19,501.4487,266.7968,503.5239,267.7848,505.5495,268.6487,507.4117,269.1042,509.5,270.125,509.4904,270.1009,507.4472,270.793,505.4525,271.6063,503.4916,272.5039,501.4144,273.111,499.5,274.125,499.6305,274.2555,500.1514,273.1764,501.0534,272.4784,502.0018,271.8268,502.6798,270.9048,503.5,270.125,503.5161,270.1411,502.6925,269.3175,501.9421,268.5671,501.1564,267.7814,500.438,267.063,499.5,266.125" style="stroke: #000000; stroke-width: 1.0;"/><path d="M50,270.125 L50,270.4052 L59.9022,269.5726 L69.8043,270.3827 L79.7065,270.6579 L89.6087,269.1738 L99.5109,270.0214 L109.413,269.5563 L119.3152,269.6137 L129.2174,270.0341 L139.1196,269.2032 L149.0217,270.8632 L158.9239,269.2846 L168.8261,269.8613 L178.7283,270.7009 L188.6304,270.0106 L198.5326,270.216 L208.4348,270.0824 L218.337,270.363 L228.2391,270.4438 L238.1413,270.9059 L248.0435,271.0197 L257.9457,271.0307 L267.8478,270.4645 L277.75,270.7431 L287.6522,271.0613 L297.5543,269.1634 L307.4565,271.0297 L317.3587,269.7297 L327.2609,270.8367 L337.163,269.465 L347.0652,270.0337 L356.9674,271.1138 L366.8696,270.06 L376.7717,270.2654 L386.6739,270.5765 L396.5761,270.68 L406.4783,270.1198 L416.3804,270.508 L426.2826,269.3618 L436.1848,270.5042 L446.087,270.8559 L455.9891,270.7177 L465.8913,270.9424 L475.7935,269.4809 L485.6957,269.2554 L495.5978,269.2965 L505.5,270.125 " fill="none" style="stroke: #000000; stroke-width: 1.0; stroke-dasharray: 2.0,2.0;"/><text fill="#000000" font-family="sans-serif" font-size="13" font-weight="bold" lengthAdjust="spacingAndGlyphs" textLength="9" x="57" y="265.0591">3</text><text fill="#000000" font-family="sans-serif" font-size="13" lengthAdjust="spacingAndGlyphs" textLength="148" x="70" y="265.0591">3DS Method Invocation</text><polygon fill="#000000" points="411.5,320.2578,411.526,320.3229,413.4487,320.9296,415.5239,321.9176,417.5495,322.7815,419.4117,323.237,421.5,324.2578,421.4904,324.2338,419.4472,324.9258,417.4525,325.7391,415.4916,326.6367,413.4144,327.2438,411.5,328.2578,411.6305,328.3883,412.1514,327.3093,413.0534,326.6112,414.0018,325.9596,414.6798,325.0376,415.5,324.2578,415.5161,324.2739,414.6925,323.4503,413.9421,322.6999,413.1564,321.9142,412.438,321.1959,411.5,320.2578" style="stroke: #000000; stroke-width: 1.0;"/><path d="M146.5,324.2578 L146.5,324.5381 L156.537,323.7054 L166.5741,324.5155 L176.6111,324.7907 L186.6481,323.3066 L196.6852,324.1542 L206.7222,323.6892 L216.7593,323.7465 L226.7963,324.1669 L236.8333,323.336 L246.8704,324.996 L256.9074,323.4174 L266.9444,323.9941 L276.9815,324.8337 L287.0185,324.1434 L297.0556,324.3488 L307.0926,324.2152 L317.1296,324.4958 L327.1667,324.5767 L337.2037,325.0387 L347.2407,325.1526 L357.2778,325.1635 L367.3148,324.5973 L377.3519,324.8759 L387.3889,325.1941 L397.4259,323.2962 L407.463,325.1625 L417.5,324.2578 " fill="none" style="stroke: #000000; stroke-width: 1.0;"/><text fill="#000000" font-family="sans-serif" font-size="13" font-weight="bold" lengthAdjust="spacingAndGlyphs" textLength="9" x="153.5" y="319.1919">4</text><text fill="#000000" font-family="sans-serif" font-size="13" lengthAdjust="spacingAndGlyphs" textLength="149" x="166.5" y="319.1919">Authentication Request</text><polygon fill="#000000" points="157.5,349.3906,157.526,349.4557,155.4487,350.0624,153.5239,351.0504,151.5495,351.9143,149.4117,352.3698,147.5,353.3906,147.4904,353.3666,149.4472,354.0586,151.4525,354.8719,153.4916,355.7695,155.4144,356.3767,157.5,357.3906,157.6305,357.5211,156.5514,356.4421,155.8534,355.744,155.2018,355.0924,154.2798,354.1704,153.5,353.3906,153.5161,353.4067,154.2925,352.5831,155.1421,351.8327,155.9564,351.047,156.838,350.3287,157.5,349.3906" style="stroke: #000000; stroke-width: 1.0;"/><path d="M151.5,353.3906 L151.5,353.6709 L161.3571,352.8382 L171.2143,353.6483 L181.0714,353.9235 L190.9286,352.4394 L200.7857,353.287 L210.6429,352.822 L220.5,352.8793 L230.3571,353.2997 L240.2143,352.4688 L250.0714,354.1288 L259.9286,352.5503 L269.7857,353.1269 L279.6429,353.9666 L289.5,353.2763 L299.3571,353.4816 L309.2143,353.348 L319.0714,353.6287 L328.9286,353.7095 L338.7857,354.1715 L348.6429,354.2854 L358.5,354.2963 L368.3571,353.7301 L378.2143,354.0087 L388.0714,354.3269 L397.9286,352.429 L407.7857,354.2953 L417.6429,352.9953 L427.5,353.3906 " fill="none" style="stroke: #000000; stroke-width: 1.0;"/><text fill="#000000" font-family="sans-serif" font-size="13" font-weight="bold" lengthAdjust="spacingAndGlyphs" textLength="9" x="163.5" y="348.3247">5</text><text fill="#000000" font-family="sans-serif" font-size="13" lengthAdjust="spacingAndGlyphs" textLength="159" x="176.5" y="348.3247">Authentication Response</text><path d="M3,406.957 L3,407.2373 L12.9352,406.4046 L22.8704,407.2147 L32.8056,407.4899 L42.7407,406.0058 L52.6759,406.8534 L62.6111,406.3884 L72.5463,406.4457 L82.4815,406.8662 L92.4167,406.0352 L102.3519,407.6952 L112.287,406.1167 L122.2222,406.6933 L132.1574,407.533 L142.0926,406.8427 L152.0278,407.048 L161.963,406.9144 L171.8981,407.1951 L181.8333,407.2759 L191.7685,407.738 L201.7037,407.8518 L211.6389,407.8627 L221.5741,407.2965 L231.5093,407.5751 L241.4444,407.8933 L251.3796,405.9955 L261.3148,407.8617 L271.25,406.5617 L281.1852,407.6688 L291.1204,406.297 L301.0556,406.8657 L310.9907,407.9458 L320.9259,406.8921 L330.8611,407.0974 L340.7963,407.4085 L350.7315,407.512 L360.6667,406.9518 L370.6019,407.34 L380.537,406.1938 L390.4722,407.3362 L400.4074,407.688 L410.3426,407.5497 L420.2778,407.7744 L430.213,406.3129 L440.1481,406.0875 L450.0833,406.1285 L460.0185,406.8785 L469.9537,406.695 L479.8889,407.8656 L489.8241,406.7241 L499.7593,406.4996 L509.6944,407.2614 L519.6296,406.0679 L529.5648,406.2649 L539.5,406.957 " fill="#EEEEEE" style="stroke: #000000; stroke-width: 1.0;"/><path d="M3,409.957 L3,410.2373 L12.9352,409.4046 L22.8704,410.2147 L32.8056,410.4899 L42.7407,409.0058 L52.6759,409.8534 L62.6111,409.3884 L72.5463,409.4457 L82.4815,409.8662 L92.4167,409.0352 L102.3519,410.6952 L112.287,409.1167 L122.2222,409.6933 L132.1574,410.533 L142.0926,409.8427 L152.0278,410.048 L161.963,409.9144 L171.8981,410.1951 L181.8333,410.2759 L191.7685,410.738 L201.7037,410.8518 L211.6389,410.8627 L221.5741,410.2965 L231.5093,410.5751 L241.4444,410.8933 L251.3796,408.9955 L261.3148,410.8617 L271.25,409.5617 L281.1852,410.6688 L291.1204,409.297 L301.0556,409.8657 L310.9907,410.9458 L320.9259,409.8921 L330.8611,410.0974 L340.7963,410.4085 L350.7315,410.512 L360.6667,409.9518 L370.6019,410.34 L380.537,409.1938 L390.4722,410.3362 L400.4074,410.688 L410.3426,410.5497 L420.2778,410.7744 L430.213,409.3129 L440.1481,409.0875 L450.0833,409.1285 L460.0185,409.8785 L469.9537,409.695 L479.8889,410.8656 L489.8241,409.7241 L499.7593,409.4996 L509.6944,410.2614 L519.6296,409.0679 L529.5648,409.2649 L539.5,409.957 " fill="#EEEEEE" style="stroke: #000000; stroke-width: 1.0;"/><polygon fill="#EEEEEE" filter="url(#f1462g6sml3ln5)" points="183.25,396.3906,183.25,396.6008,193.0278,395.9763,202.8056,396.5839,212.5833,396.7903,222.3611,395.6772,232.1389,396.3129,241.9167,395.9641,251.6944,396.0071,261.4722,396.3225,271.25,395.6993,281.0278,396.9443,290.8056,395.7603,300.5833,396.1929,310.3611,396.8226,320.1389,396.3048,329.9167,396.4589,339.6944,396.3587,349.4722,396.5692,359.25,396.3906,359.3297,396.3906,359.4452,401.0172,359.4737,405.6438,359.4764,410.2703,359.3349,414.8969,359.25,419.5234,359.25,419.987,349.4722,420.2257,339.6944,418.8023,329.9167,420.2019,320.1389,419.2269,310.3611,420.0572,300.5833,419.0284,290.8056,419.4549,281.0278,420.265,271.25,419.4747,261.4722,419.6287,251.6944,419.8621,241.9167,419.9397,232.1389,419.5195,222.3611,419.8107,212.5833,418.951,202.8056,419.8078,193.0278,420.0716,183.25,419.5234,183.3982,419.5234,183.4543,414.8969,183.089,410.2703,183.0326,405.6438,183.0429,401.0172,183.25,396.3906" style="stroke: #000000; stroke-width: 2.0;"/><text fill="#000000" font-family="sans-serif" font-size="13" font-weight="bold" lengthAdjust="spacingAndGlyphs" textLength="157" x="189.25" y="412.4575">only if challenge flow</text><polygon fill="#000000" points="61,446.6563,61.026,446.7213,58.9487,447.328,57.0239,448.3161,55.0495,449.1799,52.9117,449.6355,51,450.6563,50.9904,450.6322,52.9472,451.3243,54.9525,452.1376,56.9916,453.0352,58.9144,453.6423,61,454.6563,61.1305,454.7867,60.0514,453.7077,59.3534,453.0096,58.7018,452.3581,57.7798,451.436,57,450.6563,57.0161,450.6723,57.7925,449.8487,58.6421,449.0983,59.4564,448.3126,60.338,447.5943,61,446.6563" style="stroke: #000000; stroke-width: 1.0;"/><polygon fill="#000000" points="499.5,446.6563,499.526,446.7213,501.4487,447.328,503.5239,448.3161,505.5495,449.1799,507.4117,449.6355,509.5,450.6563,509.4904,450.6322,507.4472,451.3243,505.4525,452.1376,503.4916,453.0352,501.4144,453.6423,499.5,454.6563,499.6305,454.7867,500.1514,453.7077,501.0534,453.0096,502.0018,452.3581,502.6798,451.436,503.5,450.6563,503.5161,450.6723,502.6925,449.8487,501.9421,449.0983,501.1564,448.3126,500.438,447.5943,499.5,446.6563" style="stroke: #000000; stroke-width: 1.0;"/><path d="M55,450.6563 L55,450.9365 L65.0111,450.1038 L75.0222,450.914 L85.0333,451.1892 L95.0444,449.7051 L105.0556,450.5526 L115.0667,450.0876 L125.0778,450.1449 L135.0889,450.5654 L145.1,449.7344 L155.1111,451.3944 L165.1222,449.8159 L175.1333,450.3926 L185.1444,451.2322 L195.1556,450.5419 L205.1667,450.7472 L215.1778,450.6137 L225.1889,450.8943 L235.2,450.9751 L245.2111,451.4372 L255.2222,451.551 L265.2333,451.5619 L275.2444,450.9958 L285.2556,451.2744 L295.2667,451.5926 L305.2778,449.6947 L315.2889,451.5609 L325.3,450.2609 L335.3111,451.368 L345.3222,449.9962 L355.3333,450.5649 L365.3444,451.6451 L375.3556,450.5913 L385.3667,450.7967 L395.3778,451.1078 L405.3889,451.2112 L415.4,450.651 L425.4111,451.0392 L435.4222,449.893 L445.4333,451.0354 L455.4444,451.3872 L465.4556,451.249 L475.4667,451.4736 L485.4778,450.0121 L495.4889,449.7867 L505.5,450.6563 " fill="none" style="stroke: #000000; stroke-width: 1.0; stroke-dasharray: 2.0,2.0;"/><text fill="#000000" font-family="sans-serif" font-size="13" font-weight="bold" lengthAdjust="spacingAndGlyphs" textLength="9" x="67" y="445.5903">6</text><text fill="#000000" font-family="sans-serif" font-size="13" lengthAdjust="spacingAndGlyphs" textLength="116" x="80" y="445.5903">Perform challenge</text><polygon fill="#000000" points="157.5,500.7891,157.526,500.8541,155.4487,501.4608,153.5239,502.4489,151.5495,503.3128,149.4117,503.7683,147.5,504.7891,147.4904,504.765,149.4472,505.4571,151.4525,506.2704,153.4916,507.168,155.4144,507.7751,157.5,508.7891,157.6305,508.9196,156.5514,507.8405,155.8534,507.1424,155.2018,506.4909,154.2798,505.5688,153.5,504.7891,153.5161,504.8051,154.2925,503.9815,155.1421,503.2311,155.9564,502.4454,156.838,501.7271,157.5,500.7891" style="stroke: #000000; stroke-width: 1.0;"/><path d="M151.5,504.7891 L151.5,505.0693 L161.4722,504.2366 L171.4444,505.0468 L181.4167,505.322 L191.3889,503.8379 L201.3611,504.6854 L211.3333,504.2204 L221.3056,504.2777 L231.2778,504.6982 L241.25,503.8672 L251.2222,505.5273 L261.1944,503.9487 L271.1667,504.5254 L281.1389,505.365 L291.1111,504.6747 L301.0833,504.88 L311.0556,504.7465 L321.0278,505.0271 L331,505.1079 L340.9722,505.57 L350.9444,505.6838 L360.9167,505.6947 L370.8889,505.1286 L380.8611,505.4072 L390.8333,505.7254 L400.8056,503.8275 L410.7778,505.6937 L420.75,504.3937 L430.7222,505.5008 L440.6944,504.129 L450.6667,504.6977 L460.6389,505.7779 L470.6111,504.7241 L480.5833,504.9295 L490.5556,505.2406 L500.5278,505.344 L510.5,504.7891 " fill="none" style="stroke: #000000; stroke-width: 1.0;"/><text fill="#000000" font-family="sans-serif" font-size="13" font-weight="bold" lengthAdjust="spacingAndGlyphs" textLength="9" x="163.5" y="499.7231">7</text><text fill="#000000" font-family="sans-serif" font-size="13" lengthAdjust="spacingAndGlyphs" textLength="182" x="176.5" y="499.7231">Challenge complete callback</text><polygon fill="#000000" points="411.5,554.9219,411.526,554.9869,413.4487,555.5936,415.5239,556.5817,417.5495,557.4456,419.4117,557.9011,421.5,558.9219,421.4904,558.8978,419.4472,559.5899,417.4525,560.4032,415.4916,561.3008,413.4144,561.9079,411.5,562.9219,411.6305,563.0524,412.1514,561.9733,413.0534,561.2753,414.0018,560.6237,414.6798,559.7017,415.5,558.9219,415.5161,558.938,414.6925,558.1143,413.9421,557.364,413.1564,556.5782,412.438,555.8599,411.5,554.9219" style="stroke: #000000; stroke-width: 1.0;"/><path d="M146.5,558.9219 L146.5,559.2021 L156.537,558.3694 L166.5741,559.1796 L176.6111,559.4548 L186.6481,557.9707 L196.6852,558.8183 L206.7222,558.3532 L216.7593,558.4105 L226.7963,558.831 L236.8333,558 L246.8704,559.6601 L256.9074,558.0815 L266.9444,558.6582 L276.9815,559.4978 L287.0185,558.8075 L297.0556,559.0129 L307.0926,558.8793 L317.1296,559.1599 L327.1667,559.2407 L337.2037,559.7028 L347.2407,559.8166 L357.2778,559.8276 L367.3148,559.2614 L377.3519,559.54 L387.3889,559.8582 L397.4259,557.9603 L407.463,559.8266 L417.5,558.9219 " fill="none" style="stroke: #000000; stroke-width: 1.0;"/><text fill="#000000" font-family="sans-serif" font-size="13" font-weight="bold" lengthAdjust="spacingAndGlyphs" textLength="9" x="153.5" y="553.856">8</text><text fill="#000000" font-family="sans-serif" font-size="13" lengthAdjust="spacingAndGlyphs" textLength="147" x="166.5" y="553.856">Fetch challenge results</text><polygon fill="#000000" points="157.5,584.0547,157.526,584.1197,155.4487,584.7265,153.5239,585.7145,151.5495,586.5784,149.4117,587.0339,147.5,588.0547,147.4904,588.0306,149.4472,588.7227,151.4525,589.536,153.4916,590.4336,155.4144,591.0407,157.5,592.0547,157.6305,592.1852,156.5514,591.1061,155.8534,590.4081,155.2018,589.7565,154.2798,588.8345,153.5,588.0547,153.5161,588.0708,154.2925,587.2472,155.1421,586.4968,155.9564,585.7111,156.838,584.9927,157.5,584.0547" style="stroke: #000000; stroke-width: 1.0;"/><path d="M151.5,588.0547 L151.5,588.3349 L161.3571,587.5023 L171.2143,588.3124 L181.0714,588.5876 L190.9286,587.1035 L200.7857,587.9511 L210.6429,587.486 L220.5,587.5434 L230.3571,587.9638 L240.2143,587.1329 L250.0714,588.7929 L259.9286,587.2143 L269.7857,587.791 L279.6429,588.6306 L289.5,587.9403 L299.3571,588.1457 L309.2143,588.0121 L319.0714,588.2927 L328.9286,588.3735 L338.7857,588.8356 L348.6429,588.9494 L358.5,588.9604 L368.3571,588.3942 L378.2143,588.6728 L388.0714,588.991 L397.9286,587.0931 L407.7857,588.9594 L417.6429,587.6593 L427.5,588.0547 " fill="none" style="stroke: #000000; stroke-width: 1.0;"/><text fill="#000000" font-family="sans-serif" font-size="13" font-weight="bold" lengthAdjust="spacingAndGlyphs" textLength="9" x="163.5" y="582.9888">9</text><text fill="#000000" font-family="sans-serif" font-size="13" lengthAdjust="spacingAndGlyphs" textLength="89" x="176.5" y="582.9888">Return results</text><path d="M8,626.0547 L8.1868,626.0547 L7.6317,631.0547 L8.1718,636.0547 L8.3553,641.0547 L7.3659,646.0547 L8,651.0547 L8,650.8475 L17.8889,649.9174 L27.7778,650.032 L37.6667,650.8729 L47.5556,649.211 L57.4444,652.5311 L67.3333,649.3739 L77.2222,650.5273 L87.1111,652.2065 L97,650.8259 L106.8889,651.2367 L116.7778,650.9695 L126.6667,651.5308 L136.5556,651.6924 L146.4444,652.6165 L156.3333,652.8442 L166.2222,652.866 L176.1111,651.7337 L186,651.0547 L186.4121,651.0547 L186.6242,648.0547 L185.3589,645.0547 L186.6031,642.0547 L185.7364,639.0547 L186,636.0547 L186.3355,636.3902 L183.6889,633.7435 L181.9569,632.0116 L180.4661,630.5208 L177.9694,628.0241 L176,626.0547 L176,626.3355 L166.1176,626.9577 L156.2353,627.1646 L146.3529,626.0443 L136.4706,626.8206 L126.5882,624.5282 L116.7059,626.8131 L106.8235,627.5165 L96.9412,627.2401 L87.0588,627.6894 L77.1765,624.7665 L67.2941,624.3155 L57.4118,624.3976 L47.5294,625.8977 L37.6471,625.5306 L27.7647,627.8718 L17.8824,625.5889 L8,626.0547 " fill="#ECECEC" filter="url(#f1462g6sml3ln5)" style="stroke: #383838; stroke-width: 1.0;"/><path d="M176,626.0547 L175.6951,626.0547 L176.2029,628.0547 L175.4073,630.0547 L175.5386,632.0547 L176.5768,634.0547 L176,636.0547 L176,636.4419 L178,636.7076 L180,635.7686 L182,636.3384 L184,636.5795 L186,636.0547 L185.7031,635.7578 L183.9397,633.9944 L182.0792,632.1339 L180.4097,630.4643 L177.9974,628.0521 L176,626.0547 " fill="#ECECEC" style="stroke: #383838; stroke-width: 1.0;"/><text fill="#000000" font-family="sans-serif" font-size="13" lengthAdjust="spacingAndGlyphs" textLength="157" x="14" y="643.1216">Proceed to authorization</text><!--MD5=[f10b3d7df59b5086ffe16db9ce414a97]
@startuml
title Authentication Flow
autonumber
skinparam handwritten true
skinparam monochrome true

skinparam sequence {
	ArrowColor Black
	ActorBorderColor black
	LifeLineBorderColor black

	ParticipantBorderColor black
	ParticipantFontColor black
	ParticipantBackgroundColor white

	ActorFontColor black
	ActorBackgroundColor white

  NoteBackgroundColor white
}


actor Cardholder
participant Requestor
participant "3dsecure.io"
participant ACS

note over Cardholder, Requestor
  Begin transaction
end note
Requestor -> "3dsecure.io": Versioning/3DS-Method determination
activate "3dsecure.io"

"3dsecure.io" -> Requestor: Card Range Data
deactivate "3dsecure.io"

|||

Cardholder - -> ACS: 3DS Method Invocation

|||

Requestor -> "3dsecure.io": Authentication Request
activate "3dsecure.io"
"3dsecure.io" -> Requestor: Authentication Response
deactivate "3dsecure.io"

|||

== only if challenge flow ==
Cardholder <- -> ACS: Perform challenge

|||

ACS -> Requestor: Challenge complete callback

|||

Requestor -> "3dsecure.io" : Fetch challenge results
activate "3dsecure.io"
"3dsecure.io" -> Requestor : Return results
deactivate "3dsecure.io"

|||

note over Cardholder, Requestor
  Proceed to authorization
end note
@enduml

PlantUML version 1.2019.12(Sun Nov 03 11:24:54 CET 2019)
(GPL source distribution)
Java Runtime: OpenJDK Runtime Environment
JVM: OpenJDK 64-Bit Server VM
Java Version: 13.0.1+9
Operating System: Linux
Default Encoding: UTF-8
Language: en
Country: US
--></g></svg>