<svg width="1090" height="290" viewBox="0 0 1090 290" fill="none" xmlns="http://www.w3.org/2000/svg">
<g clip-path="url(#clip0)">
<path d="M245.67 212V76.39C245.669 74.8615 245.271 73.3595 244.516 72.0309C243.76 70.7022 242.673 69.5924 241.36 68.81L127.36 1.22998C125.998 0.420984 124.444 -0.00598145 122.86 -0.00598145C121.276 -0.00598145 119.722 0.420984 118.36 1.22998L4.32 68.81C3.0038 69.5896 1.91329 70.6986 1.15581 72.0277C0.398336 73.3568 -2.71775e-06 74.8602 1.86385e-06 76.39V212C-0.000993784 213.53 0.396926 215.034 1.1545 216.363C1.91207 217.692 3.00312 218.801 4.32 219.58L118.32 287.16C119.682 287.969 121.236 288.396 122.82 288.396C124.404 288.396 125.958 287.969 127.32 287.16L241.32 219.58C242.642 218.804 243.738 217.697 244.501 216.367C245.264 215.038 245.667 213.533 245.67 212V212Z" fill="white"/>
<path d="M123 32.1V146.54C120.961 146.541 118.958 147.075 117.19 148.09L50.64 186.09L40.47 180.3C39.1135 179.533 37.9848 178.42 37.1995 177.074C36.4141 175.728 36.0002 174.198 36 172.64V84.91C35.9994 83.3502 36.413 81.8183 37.1983 80.4708C37.9837 79.1232 39.1127 78.0083 40.47 77.24L118.16 33.24C119.629 32.3994 121.31 32.0033 123 32.1V32.1Z" fill="#709BA0"/>
<path d="M209 84.91V172.64C209 174.198 208.586 175.728 207.801 177.074C207.015 178.42 205.887 179.533 204.53 180.3L194.93 185.74L128.81 148.08C127.04 147.069 125.038 146.539 123 146.54V32.1C124.351 32.172 125.666 32.5589 126.84 33.23L204.53 77.23C205.889 77.9992 207.019 79.1157 207.804 80.4651C208.59 81.8146 209.002 83.3486 209 84.91V84.91Z" fill="#8BAEB3"/>
<path d="M194.93 185.74L126.84 224.31C125.666 224.981 124.351 225.368 123 225.44V146.54C125.038 146.539 127.04 147.07 128.81 148.08L194.93 185.74Z" fill="#99B8BB"/>
<path d="M123 146.54V225.44C121.311 225.54 119.63 225.147 118.16 224.31L50.6396 186.06L117.19 148.06C118.961 147.056 120.964 146.532 123 146.54V146.54Z" fill="#639297"/>
<path d="M203.1 210.79L128.81 253.1C127.041 254.112 125.038 254.645 123 254.645C120.962 254.645 118.959 254.112 117.19 253.1L43 210.78C41.202 209.755 39.7072 208.272 38.6675 206.482C37.6277 204.693 37.0801 202.66 37.0801 200.59C37.0801 198.52 37.6277 196.487 38.6675 194.698C39.7072 192.908 41.202 191.425 43 190.4L50.6 186.06L118.12 224.31C119.443 225.06 120.939 225.455 122.46 225.455C123.981 225.455 125.477 225.06 126.8 224.31L194.89 185.74L203.06 190.39C204.862 191.412 206.362 192.893 207.406 194.683C208.451 196.472 209.003 198.506 209.007 200.578C209.011 202.65 208.467 204.687 207.429 206.48C206.392 208.274 204.898 209.761 203.1 210.79V210.79Z" fill="#7DA4AA"/>
<path d="M387.298 132.622C395.744 133.442 402.181 136.066 406.609 140.494C411.037 144.84 413.251 150.416 413.251 157.222C413.251 162.142 412.021 166.611 409.561 170.629C407.101 174.565 403.411 177.722 398.491 180.1C393.653 182.396 387.708 183.544 380.656 183.544C374.506 183.544 368.602 182.642 362.944 180.838C357.286 178.952 352.653 176.369 349.045 173.089L354.703 163.372C357.655 166.16 361.427 168.415 366.019 170.137C370.611 171.777 375.49 172.597 380.656 172.597C387.052 172.597 392.013 171.244 395.539 168.538C399.147 165.832 400.951 162.101 400.951 157.345C400.951 152.589 399.188 148.899 395.662 146.275C392.136 143.651 386.806 142.339 379.672 142.339H372.784V133.729L394.432 107.161H352.981V96.46H409.807V104.824L387.298 132.622Z" fill="white"/>
<path d="M491.512 91.294V182.56H480.196V172.228C477.572 175.836 474.251 178.583 470.233 180.469C466.215 182.355 461.787 183.298 456.949 183.298C450.635 183.298 444.977 181.904 439.975 179.116C434.973 176.328 431.037 172.433 428.167 167.431C425.379 162.347 423.985 156.525 423.985 149.965C423.985 143.405 425.379 137.624 428.167 132.622C431.037 127.62 434.973 123.725 439.975 120.937C444.977 118.149 450.635 116.755 456.949 116.755C461.623 116.755 465.928 117.657 469.864 119.461C473.8 121.183 477.08 123.766 479.704 127.21V91.294H491.512ZM457.933 172.966C462.033 172.966 465.764 172.023 469.126 170.137C472.488 168.169 475.112 165.463 476.998 162.019C478.884 158.493 479.827 154.475 479.827 149.965C479.827 145.455 478.884 141.478 476.998 138.034C475.112 134.508 472.488 131.802 469.126 129.916C465.764 128.03 462.033 127.087 457.933 127.087C453.751 127.087 449.979 128.03 446.617 129.916C443.337 131.802 440.713 134.508 438.745 138.034C436.859 141.478 435.916 145.455 435.916 149.965C435.916 154.475 436.859 158.493 438.745 162.019C440.713 165.463 443.337 168.169 446.617 170.137C449.979 172.023 453.751 172.966 457.933 172.966Z" fill="white"/>
<path d="M532.549 183.298C527.219 183.298 522.094 182.601 517.174 181.207C512.254 179.731 508.4 177.886 505.612 175.672L510.532 166.324C513.402 168.374 516.887 170.014 520.987 171.244C525.087 172.474 529.228 173.089 533.41 173.089C543.742 173.089 548.908 170.137 548.908 164.233C548.908 162.265 548.211 160.707 546.817 159.559C545.423 158.411 543.66 157.591 541.528 157.099C539.478 156.525 536.526 155.91 532.672 155.254C527.424 154.434 523.119 153.491 519.757 152.425C516.477 151.359 513.648 149.555 511.27 147.013C508.892 144.471 507.703 140.904 507.703 136.312C507.703 130.408 510.163 125.693 515.083 122.167C520.003 118.559 526.604 116.755 534.886 116.755C539.232 116.755 543.578 117.288 547.924 118.354C552.27 119.42 555.837 120.855 558.625 122.659L553.582 132.007C548.252 128.563 541.979 126.841 534.763 126.841C529.761 126.841 525.948 127.661 523.324 129.301C520.7 130.941 519.388 133.114 519.388 135.82C519.388 137.952 520.126 139.633 521.602 140.863C523.078 142.093 524.882 142.995 527.014 143.569C529.228 144.143 532.303 144.799 536.239 145.537C541.487 146.439 545.71 147.423 548.908 148.489C552.188 149.473 554.976 151.195 557.272 153.655C559.568 156.115 560.716 159.559 560.716 163.987C560.716 169.891 558.174 174.606 553.09 178.132C548.088 181.576 541.241 183.298 532.549 183.298Z" fill="white"/>
<path d="M634.391 150.334C634.391 151.236 634.309 152.425 634.145 153.901H581.255C581.993 159.641 584.494 164.274 588.758 167.8C593.104 171.244 598.474 172.966 604.87 172.966C612.66 172.966 618.934 170.342 623.69 165.094L630.209 172.72C627.257 176.164 623.567 178.788 619.139 180.592C614.793 182.396 609.914 183.298 604.502 183.298C597.614 183.298 591.505 181.904 586.174 179.116C580.844 176.246 576.704 172.269 573.752 167.185C570.882 162.101 569.447 156.361 569.447 149.965C569.447 143.651 570.841 137.952 573.629 132.868C576.499 127.784 580.394 123.848 585.314 121.06C590.316 118.19 595.933 116.755 602.165 116.755C608.397 116.755 613.932 118.19 618.77 121.06C623.69 123.848 627.503 127.784 630.209 132.868C632.997 137.952 634.391 143.774 634.391 150.334ZM602.165 126.718C596.507 126.718 591.751 128.44 587.896 131.884C584.125 135.328 581.911 139.838 581.255 145.414H623.075C622.419 139.92 620.164 135.451 616.31 132.007C612.538 128.481 607.823 126.718 602.165 126.718Z" fill="white"/>
<path d="M679.2 183.298C672.558 183.298 666.613 181.863 661.365 178.993C656.199 176.123 652.14 172.187 649.188 167.185C646.236 162.101 644.76 156.361 644.76 149.965C644.76 143.569 646.236 137.87 649.188 132.868C652.14 127.784 656.199 123.848 661.365 121.06C666.613 118.19 672.558 116.755 679.2 116.755C685.104 116.755 690.352 117.944 694.944 120.322C699.618 122.7 703.226 126.144 705.768 130.654L696.789 136.435C694.739 133.319 692.197 130.982 689.163 129.424C686.129 127.866 682.767 127.087 679.077 127.087C674.813 127.087 670.959 128.03 667.515 129.916C664.153 131.802 661.488 134.508 659.52 138.034C657.634 141.478 656.691 145.455 656.691 149.965C656.691 154.557 657.634 158.616 659.52 162.142C661.488 165.586 664.153 168.251 667.515 170.137C670.959 172.023 674.813 172.966 679.077 172.966C682.767 172.966 686.129 172.187 689.163 170.629C692.197 169.071 694.739 166.734 696.789 163.618L705.768 169.276C703.226 173.786 699.618 177.271 694.944 179.731C690.352 182.109 685.104 183.298 679.2 183.298Z" fill="white"/>
<path d="M781.818 117.37V182.56H770.625V172.72C768.247 176.082 765.09 178.706 761.154 180.592C757.3 182.396 753.077 183.298 748.485 183.298C739.793 183.298 732.946 180.92 727.944 176.164C722.942 171.326 720.441 164.233 720.441 154.885V117.37H732.249V153.532C732.249 159.846 733.766 164.643 736.8 167.923C739.834 171.121 744.18 172.72 749.838 172.72C756.07 172.72 760.99 170.834 764.598 167.062C768.206 163.29 770.01 157.96 770.01 151.072V117.37H781.818Z" fill="white"/>
<path d="M815.613 128.317C817.663 124.545 820.697 121.675 824.715 119.707C828.733 117.739 833.612 116.755 839.352 116.755V128.194C838.696 128.112 837.794 128.071 836.646 128.071C830.25 128.071 825.207 129.998 821.517 133.852C817.909 137.624 816.105 143.036 816.105 150.088V182.56H804.297V117.37H815.613V128.317Z" fill="white"/>
<path d="M912.222 150.334C912.222 151.236 912.14 152.425 911.976 153.901H859.086C859.824 159.641 862.325 164.274 866.589 167.8C870.935 171.244 876.306 172.966 882.702 172.966C890.492 172.966 896.765 170.342 901.521 165.094L908.04 172.72C905.088 176.164 901.398 178.788 896.97 180.592C892.624 182.396 887.745 183.298 882.333 183.298C875.445 183.298 869.336 181.904 864.006 179.116C858.676 176.246 854.535 172.269 851.583 167.185C848.713 162.101 847.278 156.361 847.278 149.965C847.278 143.651 848.672 137.952 851.46 132.868C854.33 127.784 858.225 123.848 863.145 121.06C868.147 118.19 873.764 116.755 879.996 116.755C886.228 116.755 891.763 118.19 896.601 121.06C901.521 123.848 905.334 127.784 908.04 132.868C910.828 137.952 912.222 143.774 912.222 150.334ZM879.996 126.718C874.338 126.718 869.582 128.44 865.728 131.884C861.956 135.328 859.742 139.838 859.086 145.414H900.906C900.25 139.92 897.995 135.451 894.141 132.007C890.369 128.481 885.654 126.718 879.996 126.718Z" fill="white"/>
<path d="M931.447 183.298C929.151 183.298 927.183 182.519 925.543 180.961C923.903 179.321 923.083 177.271 923.083 174.811C923.083 172.433 923.903 170.465 925.543 168.907C927.183 167.267 929.151 166.447 931.447 166.447C933.743 166.447 935.67 167.226 937.228 168.784C938.786 170.342 939.565 172.351 939.565 174.811C939.565 177.271 938.745 179.321 937.105 180.961C935.547 182.519 933.661 183.298 931.447 183.298Z" fill="white"/>
<path d="M956.485 117.37H968.293V182.56H956.485V117.37ZM962.389 104.824C960.093 104.824 958.166 104.086 956.608 102.61C955.132 101.134 954.394 99.33 954.394 97.198C954.394 95.066 955.132 93.262 956.608 91.786C958.166 90.228 960.093 89.449 962.389 89.449C964.685 89.449 966.571 90.187 968.047 91.663C969.605 93.057 970.384 94.82 970.384 96.952C970.384 99.166 969.605 101.052 968.047 102.61C966.571 104.086 964.685 104.824 962.389 104.824Z" fill="white"/>
<path d="M1018.76 183.298C1012.28 183.298 1006.46 181.863 1001.29 178.993C996.128 176.123 992.069 172.187 989.117 167.185C986.247 162.101 984.812 156.361 984.812 149.965C984.812 143.569 986.247 137.87 989.117 132.868C992.069 127.784 996.128 123.848 1001.29 121.06C1006.46 118.19 1012.28 116.755 1018.76 116.755C1025.24 116.755 1031.02 118.19 1036.1 121.06C1041.27 123.848 1045.29 127.784 1048.16 132.868C1051.11 137.87 1052.58 143.569 1052.58 149.965C1052.58 156.361 1051.11 162.101 1048.16 167.185C1045.29 172.187 1041.27 176.123 1036.1 178.993C1031.02 181.863 1025.24 183.298 1018.76 183.298ZM1018.76 172.966C1022.94 172.966 1026.67 172.023 1029.95 170.137C1033.31 168.169 1035.94 165.463 1037.82 162.019C1039.71 158.493 1040.65 154.475 1040.65 149.965C1040.65 145.455 1039.71 141.478 1037.82 138.034C1035.94 134.508 1033.31 131.802 1029.95 129.916C1026.67 128.03 1022.94 127.087 1018.76 127.087C1014.58 127.087 1010.81 128.03 1007.44 129.916C1004.16 131.802 1001.54 134.508 999.572 138.034C997.686 141.478 996.743 145.455 996.743 149.965C996.743 154.475 997.686 158.493 999.572 162.019C1001.54 165.463 1004.16 168.169 1007.44 170.137C1010.81 172.023 1014.58 172.966 1018.76 172.966Z" fill="white"/>
</g>
<defs>
<clipPath id="clip0">
<rect width="1089.5" height="289.27" fill="white"/>
</clipPath>
</defs>
</svg>
